<svg width="48" height="49" viewBox="0 0 48 49" fill="none" xmlns="http://www.w3.org/2000/svg">
<g clip-path="url(#clip0_6176_16071)">
<path d="M0.355469 7.95287C0.355469 3.73984 3.80116 0.33156 8.02816 0.392404C12.1227 0.451279 15.452 3.80922 15.4779 7.90403C15.4924 10.1972 14.4857 12.2553 12.8862 13.6514C12.7173 13.7987 12.7417 14.0675 12.9346 14.1816L14.3593 15.0246C14.5896 15.1609 14.493 15.514 14.2253 15.514L7.77362 15.5124C3.66372 15.436 0.355469 12.081 0.355469 7.95287Z" fill="#7EF3AA"/>
<path d="M14.3594 15.0247L12.9346 14.1817C12.7428 14.0682 12.7162 13.7997 12.8841 13.6533C14.5019 12.2424 15.5138 10.1544 15.4772 7.83067C15.4137 3.81132 12.1606 0.511979 8.14237 0.394885C7.57256 0.378292 7.01644 0.424885 6.48047 0.527917C9.95363 1.19373 12.6006 4.25514 12.6236 7.90398C12.6348 9.67107 12.0396 11.2986 11.034 12.5911C10.4268 13.3716 10.6241 14.5033 11.4752 15.0069L11.505 15.0246C11.7328 15.1594 11.6404 15.5057 11.3795 15.5132L14.2253 15.5139C14.493 15.514 14.5897 15.1609 14.3594 15.0247Z" fill="#2ACDB1"/>
<path d="M37.2017 27.8374H20.0487C15.7645 27.8374 13.42 22.8446 16.1563 19.548L16.3084 19.3646C17.5139 17.9124 18.1737 16.0843 18.1737 14.1969V10.8892C18.1738 5.09148 22.8737 0.391602 28.6713 0.391602C34.469 0.391602 39.1689 5.09148 39.1689 10.8892V14.3086C39.1689 16.2158 39.8426 18.0616 41.0711 19.5204C43.8415 22.8103 41.5028 27.8374 37.2017 27.8374Z" fill="#C59191"/>
<path d="M46.2175 36.3381V47.6781H11.0312V36.4234C11.0312 33.8753 12.5584 31.5756 14.9059 30.5875L20.5862 28.1181L22.4987 27.2865C23.95 26.6556 24.8884 25.224 24.8884 23.6415V22.9075H32.3594V23.604C32.3594 25.1931 33.3072 26.6303 34.7687 27.2565L42.4516 30.55C44.7409 31.5643 46.2175 33.8331 46.2175 36.3381Z" fill="white"/>
<path d="M20.5858 30.8219C22.5245 31.4012 25.3779 32.019 28.8562 31.9582C32.1197 31.9012 34.7987 31.2666 36.6628 30.6712L37.5891 28.4655L34.7685 27.2566C33.3073 26.6302 32.3599 25.1935 32.3599 23.6037V22.9077H24.8889V23.6416C24.8889 25.2239 23.9503 26.6554 22.4993 27.2863L20.2148 28.2796L20.5858 30.8219Z" fill="#FFCEBF"/>
<path d="M42.4525 30.5496L36.6651 28.0691L36.6641 28.0692V47.678H46.2189V36.3383C46.2189 33.8336 44.7424 31.5644 42.4525 30.5496Z" fill="#4E6BFF"/>
<path d="M20.5863 28.1182V47.6782H11.0312V36.4235C11.0312 33.8754 12.5584 31.5757 14.9059 30.5875L20.5863 28.1182Z" fill="#4E6BFF"/>
<path d="M31.2123 27.0082C32.0718 27.0082 32.8908 26.8357 33.6373 26.5242C32.8365 25.785 32.358 24.7331 32.358 23.6037V22.9077H24.8871V23.6415C24.8871 24.2131 24.764 24.7648 24.5391 25.2664C25.6703 26.3448 27.2008 27.0082 28.8871 27.0082L31.2123 27.0082Z" fill="#FFB09E"/>
<path d="M36.0902 11.669V17.8495C36.0902 21.3313 33.2675 24.1539 29.7857 24.1539H27.4607C23.9788 24.1539 21.1562 21.3313 21.1562 17.8495V11.669C21.1562 9.40391 22.9924 7.56763 25.2576 7.56763H31.9889C34.254 7.56772 36.0902 9.40391 36.0902 11.669Z" fill="#FFCEBF"/>
<path d="M36.0908 14.8848C36.0879 14.8933 36.0845 14.9015 36.0819 14.9103C35.854 15.6973 35.2559 17.184 33.8105 18.2986C33.1374 18.8177 32.3697 19.1927 31.5288 19.4134C31.1476 19.5134 30.9196 19.9035 31.0196 20.2847C31.1038 20.6052 31.3929 20.8174 31.7094 20.8174C31.7694 20.8174 31.8303 20.8098 31.891 20.7938C32.9178 20.5244 33.8568 20.0651 34.6821 19.4288C35.252 18.9893 35.7132 18.5039 36.0866 18.0158C36.088 17.9605 36.0909 17.9055 36.0909 17.8498V14.8848H36.0908Z" fill="#7A6D79"/>
<path d="M30.7457 21.3858H29.0735C28.3124 21.3858 27.6953 20.7688 27.6953 20.0076C27.6953 19.2465 28.3124 18.6294 29.0735 18.6294H30.7457C31.5069 18.6294 32.124 19.2465 32.124 20.0076C32.1239 20.7689 31.5069 21.3858 30.7457 21.3858Z" fill="#685E68"/>
<path d="M30.1123 5.93207C30.2724 3.9127 32.2057 2.57254 34.0561 1.87842C37.1169 3.71245 39.1661 7.06129 39.1661 10.8892V11.6109C38.9969 11.6464 38.8285 11.6775 38.662 11.7024C37.6427 11.8546 36.7746 11.7887 36.1816 11.7024C32.36 11.1933 29.9189 8.37098 30.1123 5.93207Z" fill="#B98080"/>
<path d="M28.6693 0.391602C31.0401 0.391602 33.2271 1.17779 34.9844 2.50332C34.1078 4.02873 32.0948 7.04466 28.3201 9.27741C25.5179 10.935 22.8757 11.492 21.2486 11.7023H18.1719V10.8891C18.1718 5.09148 22.8717 0.391602 28.6693 0.391602Z" fill="#C59191"/>
<path d="M40.4035 47.6779H17.561L16.3011 35.7927C16.2117 34.9497 16.8726 34.2151 17.7203 34.2151H40.2444C41.092 34.2151 41.7529 34.9497 41.6635 35.7927L40.4035 47.6779Z" fill="#EFEDEF"/>
<path d="M40.2449 34.2153H37.3906C38.2383 34.2153 38.8992 34.95 38.8098 35.793L37.5499 47.6782H40.4042L41.6641 35.793C41.7536 34.95 41.0927 34.2153 40.2449 34.2153Z" fill="#E5E1E5"/>
<path d="M47.2969 48.3916H0.703125C0.314719 48.3916 0 48.0768 0 47.6885C0 47.3002 0.314719 46.9854 0.703125 46.9854H47.2969C47.6853 46.9854 48 47.3002 48 47.6885C48 48.0768 47.6853 48.3916 47.2969 48.3916Z" fill="#C9BFC8"/>
<path d="M28.9824 42.9447C30.0858 42.9447 30.9804 42.0502 30.9804 40.9467C30.9804 39.8433 30.0858 38.9487 28.9824 38.9487C27.8789 38.9487 26.9844 39.8433 26.9844 40.9467C26.9844 42.0502 27.8789 42.9447 28.9824 42.9447Z" fill="#C9BFC8"/>
<path d="M5.06509 8.66632C5.45917 8.66632 5.77863 8.34686 5.77863 7.95279C5.77863 7.55872 5.45917 7.23926 5.06509 7.23926C4.67102 7.23926 4.35156 7.55872 4.35156 7.95279C4.35156 8.34686 4.67102 8.66632 5.06509 8.66632Z" fill="white"/>
<path d="M7.92056 8.66632C8.31463 8.66632 8.63409 8.34686 8.63409 7.95279C8.63409 7.55872 8.31463 7.23926 7.92056 7.23926C7.52649 7.23926 7.20703 7.55872 7.20703 7.95279C7.20703 8.34686 7.52649 8.66632 7.92056 8.66632Z" fill="white"/>
<path d="M10.7721 8.66632C11.1662 8.66632 11.4857 8.34686 11.4857 7.95279C11.4857 7.55872 11.1662 7.23926 10.7721 7.23926C10.3781 7.23926 10.0586 7.55872 10.0586 7.95279C10.0586 8.34686 10.3781 8.66632 10.7721 8.66632Z" fill="white"/>
</g>
<defs>
<clipPath id="clip0_6176_16071">
<rect width="48" height="48" fill="white" transform="translate(0 0.391602)"/>
</clipPath>
</defs>
</svg>
