<svg width="26" height="26" viewBox="0 0 26 26" fill="none" xmlns="http://www.w3.org/2000/svg">
<path fill-rule="evenodd" clip-rule="evenodd" d="M13.5579 24.2604C17.2349 21.9345 21.4067 19.8127 22.0673 15.5474L22.1051 4.65374C22.1067 4.20543 21.7301 3.83269 21.2303 3.78787C18.2475 3.52041 15.6651 2.82253 13.4831 1.6943C13.1734 1.53419 12.8184 1.53419 12.5087 1.6943C10.3268 2.82253 7.7443 3.52041 4.76149 3.78787C4.26175 3.83268 3.88515 4.20544 3.88672 4.65374L3.92451 15.5474C4.58507 19.8127 8.7569 21.9345 12.4339 24.2604C12.7768 24.4773 13.215 24.4773 13.5579 24.2604ZM9.17677 11.9118L10.6892 14.5315L17.1405 8.08023L18.6132 9.55297L10.2491 17.9171L7.37855 12.9451L9.17677 11.9118Z" fill="#F37435"/>
</svg>
