<svg width="48" height="49" viewBox="0 0 48 49" fill="none" xmlns="http://www.w3.org/2000/svg">
<g clip-path="url(#clip0_6176_16028)">
<path d="M29.4614 42.9306C19.2387 42.9306 10.9219 34.6138 10.9219 24.3911C10.9219 14.1684 19.2387 5.85156 29.4614 5.85156C39.6842 5.85156 48.001 14.1684 48.001 24.3911C48.001 34.6138 39.6842 42.9306 29.4614 42.9306Z" fill="#82D2FF"/>
<path d="M29.4609 42.9307C29.4609 31.5158 29.4609 10.4998 29.4609 5.85156C39.6837 5.85166 48.0006 14.1685 48.0006 24.3912C48.0006 34.6139 39.6837 42.9307 29.4609 42.9307Z" fill="#08B7FC"/>
<path d="M29.4614 8.66406C20.7895 8.66406 13.7344 15.7192 13.7344 24.3911C13.7344 33.063 20.7894 40.1181 29.4614 40.1181C38.1334 40.1181 45.1885 33.063 45.1885 24.3911C45.1885 15.7192 38.1334 8.66406 29.4614 8.66406Z" fill="white"/>
<path d="M29.4609 8.66406C29.4609 12.0159 29.4609 30.0162 29.4609 40.1182C38.1329 40.1181 45.1881 33.063 45.1881 24.3911C45.1881 15.7192 38.1329 8.66406 29.4609 8.66406Z" fill="#FEFEFE"/>
<path d="M8.11016 17.3599H2.59766V20.1724H8.11016V17.3599Z" fill="#B79D08"/>
<path d="M8.11016 28.6099H2.59766V31.4224H8.11016V28.6099Z" fill="#B79D08"/>
<path d="M8.10844 22.9849H0V25.7974H8.10844V22.9849Z" fill="#B79D08"/>
<path d="M34.8023 31.5158L27.5547 26.5767V16.0059H30.3672V25.09L36.3862 29.1916L34.8023 31.5158Z" fill="#4D4D4D"/>
</g>
<defs>
<clipPath id="clip0_6176_16028">
<rect width="48" height="48" fill="white" transform="translate(0 0.391113)"/>
</clipPath>
</defs>
</svg>
