<svg width="14" height="14" viewBox="0 0 14 14" fill="none" xmlns="http://www.w3.org/2000/svg">
<path d="M1.84766 12.25H2.91641L10.2477 4.91875L9.17891 3.85L1.84766 11.1813V12.25ZM0.347656 13.75V10.5625L10.2477 0.68125C10.3977 0.54375 10.5633 0.4375 10.7445 0.3625C10.9258 0.2875 11.1164 0.25 11.3164 0.25C11.5164 0.25 11.7102 0.2875 11.8977 0.3625C12.0852 0.4375 12.2477 0.55 12.3852 0.7L13.4164 1.75C13.5664 1.8875 13.6758 2.05 13.7445 2.2375C13.8133 2.425 13.8477 2.6125 13.8477 2.8C13.8477 3 13.8133 3.19063 13.7445 3.37188C13.6758 3.55313 13.5664 3.71875 13.4164 3.86875L3.53516 13.75H0.347656ZM9.70391 4.39375L9.17891 3.85L10.2477 4.91875L9.70391 4.39375Z" fill="#F37435"/>
</svg>
