<svg width="48" height="49" viewBox="0 0 48 49" fill="none" xmlns="http://www.w3.org/2000/svg">
<g clip-path="url(#clip0_6131_15756)">
<path d="M0 8.07227V48.3911H24L29.7002 30.1123L24 8.07227H0Z" fill="#7EF3AA"/>
<path d="M24 8.07227H48V48.3911H24V8.07227Z" fill="#2ACDB1"/>
<path d="M10.7754 13.6973C10.7754 16.8999 8.17916 19.4961 4.97656 19.4961V36.9673C8.17916 36.9673 10.7754 39.5635 10.7754 42.7661H24L27.9542 28.9852L24 13.6973H10.7754Z" fill="#FAF6FF"/>
<path d="M37.2247 13.6973H24V42.7661H37.2247C37.2247 39.5635 39.8209 36.9673 43.0235 36.9673V19.4961C39.8209 19.4961 37.2247 16.8999 37.2247 13.6973Z" fill="#E9E2EF"/>
<path d="M12.2891 32.8179H21.5048V35.6304H12.2891V32.8179Z" fill="#E9E2EF"/>
<path d="M26.4922 32.8179H35.708V35.6304H26.4922V32.8179Z" fill="#C9C8E1"/>
<path d="M18.25 17.4019V28.9431L24.0035 26.0087L25.95 22.3914L24.0035 17.4019H18.25Z" fill="#FC5D66"/>
<path d="M29.7535 17.4019H24V26.0087L29.7535 28.9431V17.4019H29.7534L29.7535 17.4019Z" fill="#E62E6B"/>
<path d="M17.2196 3.20043C15.4078 5.01205 14.4102 7.42068 14.4102 9.98258C14.4102 12.5445 15.4078 14.9531 17.2196 16.7647C19.031 18.5764 21.4396 19.5741 24.0017 19.5741L26.2813 9.98258L24.0017 0.391113C21.4396 0.391113 19.031 1.3888 17.2196 3.20043Z" fill="#FEDF4F"/>
<path d="M30.7822 3.20043C28.9706 1.3888 26.562 0.391113 24 0.391113V19.574C26.562 19.574 28.9706 18.5763 30.7822 16.7646C32.5939 14.953 33.5916 12.5444 33.5916 9.98249C33.5916 7.42058 32.5938 5.01205 30.7822 3.20043Z" fill="#FDB056"/>
<path d="M19.4414 9.98259C19.4414 12.4966 21.4867 14.5418 24.0007 14.5418L25.9471 10.1824L24.0007 5.42334C21.4868 5.42334 19.4414 7.46859 19.4414 9.98259Z" fill="#FEF79C"/>
<path d="M24.0039 5.42334V14.5418C26.5178 14.5418 28.5632 12.4966 28.5632 9.98259C28.5632 7.46859 26.5178 5.42334 24.0039 5.42334Z" fill="#FEDF4F"/>
</g>
<defs>
<clipPath id="clip0_6131_15756">
<rect width="48" height="48" fill="white" transform="translate(0 0.391113)"/>
</clipPath>
</defs>
</svg>
