<svg width="386" height="254" viewBox="0 0 386 254" fill="none" xmlns="http://www.w3.org/2000/svg">
<g clip-path="url(#clip0_6323_15543)">
<rect x="0.4375" width="385" height="254" rx="14" fill="#F3FFE5"/>
<circle cx="192.937" cy="127" r="136.703" fill="#E3FFCB"/>
<path d="M357.906 169.343C357.906 169.343 358.198 175.093 360.732 180.808C363.265 186.522 370.095 188.871 370.095 188.871C370.095 188.871 363.961 188.871 360.204 194.294C357.547 198.129 358.163 206.413 358.163 206.413C358.163 206.413 358.078 198.551 355.4 194.984C350.178 188.03 344.792 188.871 344.792 188.871C344.792 188.871 351.849 187.665 355.4 180.808C358.951 173.95 357.906 169.343 357.906 169.343Z" fill="#FFE391"/>
<path d="M349.504 209.526C349.504 209.526 349.65 212.402 350.917 215.259C352.183 218.116 355.598 219.291 355.598 219.291C355.598 219.291 352.531 219.291 350.653 222.002C349.324 223.92 349.632 228.062 349.632 228.062C349.632 228.062 349.59 224.131 348.251 222.347C345.64 218.87 342.946 219.291 342.946 219.291C342.946 219.291 346.475 218.688 348.251 215.259C350.026 211.83 349.504 209.526 349.504 209.526Z" fill="#FFE391"/>
<path d="M29.125 44.7126C29.125 44.7126 29.3177 48.509 30.9903 52.2816C32.6628 56.0543 37.1718 57.6047 37.1718 57.6047C37.1718 57.6047 33.1223 57.6047 30.6419 61.185C28.8879 63.7168 29.2945 69.1858 29.2945 69.1858C29.2945 69.1858 29.2386 63.9954 27.4702 61.6406C24.0228 57.0497 20.4669 57.6047 20.4669 57.6047C20.4669 57.6047 25.126 56.8088 27.4702 52.2816C29.8145 47.7545 29.125 44.7126 29.125 44.7126Z" fill="#FFE391"/>
<path d="M44.7305 21.2058C44.7305 21.2058 44.9273 25.0828 46.6354 28.9356C48.3434 32.7883 52.9482 34.3716 52.9482 34.3716C52.9482 34.3716 48.8127 34.3716 46.2795 38.0281C44.4883 40.6136 44.9035 46.1988 44.9035 46.1988C44.9035 46.1988 44.8465 40.8981 43.0406 38.4932C39.5199 33.8048 35.8885 34.3716 35.8885 34.3716C35.8885 34.3716 40.6465 33.5589 43.0406 28.9356C45.4346 24.3122 44.7305 21.2058 44.7305 21.2058Z" fill="#FFE391"/>
</g>
<rect x="0.9375" y="0.5" width="384" height="253" rx="13.5" stroke="#BFFF75"/>
<defs>
<clipPath id="clip0_6323_15543">
<rect x="0.4375" width="385" height="254" rx="14" fill="white"/>
</clipPath>
</defs>
</svg>
