<?xml version="1.0" standalone="no"?>
<!DOCTYPE svg PUBLIC "-//W3C//DTD SVG 20010904//EN"
 "http://www.w3.org/TR/2001/REC-SVG-20010904/DTD/svg10.dtd">
<svg version="1.0" xmlns="http://www.w3.org/2000/svg"
 width="240.000000pt" height="120.000000pt" viewBox="0 0 240.000000 120.000000"
 preserveAspectRatio="xMidYMid meet">

<g transform="translate(0.000000,120.000000) scale(0.100000,-0.100000)"
fill="#000000" stroke="none">
<path d="M142 754 c-101 -50 -119 -149 -43 -225 112 -113 341 -47 341 97 0 84
-74 145 -185 152 -50 3 -69 -1 -113 -24z m76 -31 c-8 -10 -18 -25 -23 -33 -4
-8 5 0 21 18 22 26 36 33 56 30 l28 -3 -48 -62 -47 -62 -62 -1 c-35 0 -63 2
-63 5 0 3 21 32 47 65 38 50 51 60 76 60 28 0 29 -1 15 -17z m156 -52 l47 -61
-48 0 c-44 0 -50 4 -75 38 l-26 37 20 28 c11 15 23 25 27 23 4 -3 29 -32 55
-65z m-136 -92 c3 -11 2 -12 -6 0 -7 10 -11 10 -17 1 -4 -6 -14 -9 -23 -5 -8
3 -19 0 -24 -7 -6 -10 -8 -9 -8 4 0 11 10 18 28 21 37 5 45 3 50 -14z m83 11
c5 0 9 -4 9 -9 0 -5 -13 -9 -30 -9 -16 1 -30 4 -30 8 0 13 14 21 28 15 7 -3
18 -5 23 -5z m-91 -48 c0 5 5 6 10 3 25 -15 5 -23 -52 -20 -75 3 -79 4 -54 14
11 4 37 4 58 1 22 -4 38 -3 38 2z m140 -12 c0 -5 -22 -8 -50 -7 -51 2 -68 13
-27 19 31 4 77 -3 77 -12z"/>
<path d="M724 743 c4 -23 3 -23 -122 -23 -70 0 -121 -4 -114 -8 7 -5 10 -16 6
-25 -9 -25 11 -20 25 6 l11 22 -6 -22 c-3 -12 0 -32 7 -44 10 -19 9 -21 -5
-16 -9 4 -16 2 -16 -3 0 -6 11 -10 25 -10 25 0 33 14 15 25 -5 3 -10 19 -10
36 0 24 4 29 25 29 14 0 25 -4 25 -10 0 -5 -7 -10 -16 -10 -8 0 -12 -5 -9 -10
4 -6 11 -8 16 -5 5 4 9 -1 9 -9 0 -30 19 -16 23 17 l4 32 1 -32 c2 -41 22 -44
22 -3 0 22 5 30 18 30 10 0 13 -3 6 -8 -12 -8 -12 -40 0 -60 12 -19 21 -14 24
13 1 14 -3 25 -9 25 -6 0 -4 7 5 15 16 16 46 20 46 6 0 -5 -7 -11 -15 -15 -20
-7 -8 -36 16 -36 10 0 19 4 19 10 0 5 -7 7 -15 4 -21 -8 -19 2 5 26 11 11 29
20 41 20 19 0 19 -1 5 -16 -21 -20 -20 -31 3 -43 14 -8 22 -7 31 4 10 12 8 17
-11 24 -16 6 -18 10 -8 10 9 1 19 8 23 16 4 12 -4 15 -38 15 -34 0 -45 4 -55
23 l-12 22 5 -22z"/>
<path d="M1460 755 c0 -6 5 -16 12 -23 9 -9 -12 -12 -97 -12 -66 0 -104 -4
-96 -9 8 -5 9 -11 3 -15 -12 -7 -5 -41 12 -55 8 -7 12 -3 14 15 1 13 -3 24 -9
24 -6 0 -3 7 5 16 18 18 40 9 32 -13 -3 -8 0 -21 8 -28 12 -12 15 -9 20 20 4
22 13 35 22 35 11 0 13 -6 9 -20 -8 -24 3 -26 20 -4 9 14 11 10 9 -21 -4 -46
0 -55 26 -48 17 5 17 7 5 20 -21 20 -20 73 1 73 9 0 14 -6 11 -12 -5 -15 10
-48 22 -48 4 0 6 14 3 30 -4 29 -3 30 31 30 20 0 39 -4 42 -10 4 -6 -5 -10
-19 -10 -14 0 -26 -5 -26 -11 0 -6 8 -8 19 -4 12 3 21 0 25 -10 3 -8 10 -15
16 -15 6 0 8 5 5 10 -3 6 -1 10 4 10 6 0 11 -4 11 -10 0 -5 5 -10 10 -10 6 0
10 16 10 35 l0 35 -61 0 c-51 0 -64 4 -80 23 -10 12 -18 17 -19 12z m140 -55
c0 -5 -4 -10 -10 -10 -5 0 -10 5 -10 10 0 6 5 10 10 10 6 0 10 -4 10 -10z"/>
<path d="M986 735 c-3 -8 -18 -15 -34 -15 -26 0 -28 -2 -24 -35 5 -43 27 -65
35 -35 3 13 0 23 -9 27 -11 4 -11 7 1 19 20 20 25 17 25 -15 0 -17 5 -33 10
-36 6 -4 10 8 10 29 0 32 3 36 26 36 23 0 24 -1 10 -16 -9 -8 -16 -19 -16 -24
0 -13 32 -28 48 -23 19 7 14 23 -10 33 -18 7 -19 9 -5 9 9 1 17 6 17 11 0 6
10 10 21 10 17 0 19 -3 10 -13 -6 -8 -8 -17 -4 -21 4 -4 13 4 20 16 13 23 13
23 11 -6 -4 -41 20 -45 25 -4 l4 33 1 -32 c3 -44 22 -42 22 2 l0 35 -90 0
c-51 0 -90 4 -90 10 0 5 8 7 18 4 14 -5 15 -4 2 5 -20 14 -27 14 -34 -4z"/>
<path d="M1932 738 c-5 -8 -6 -31 -2 -58 8 -49 11 -51 14 -6 0 16 6 31 12 33
7 2 10 -5 7 -20 -3 -14 2 -29 13 -38 16 -13 16 -12 6 8 -11 19 -10 22 8 20 13
-1 20 -8 20 -21 0 -29 18 -7 23 29 l4 30 2 -32 c1 -41 21 -44 21 -3 0 17 5 30
10 30 6 0 10 -12 10 -26 0 -15 4 -23 11 -19 6 4 17 -1 24 -11 13 -17 14 -16
15 19 0 30 4 37 20 37 24 0 26 -9 3 -25 -9 -7 -13 -17 -9 -23 9 -14 46 -16 46
-2 0 5 -7 7 -15 4 -20 -8 -19 1 2 26 10 11 29 20 42 20 23 0 24 -1 6 -14 -23
-16 -14 -46 14 -46 30 0 35 19 9 29 -15 7 -18 10 -7 10 9 1 19 8 23 16 4 12
-4 15 -38 15 -30 0 -46 5 -50 15 -3 8 -11 15 -18 14 -10 0 -10 -2 0 -6 29 -11
8 -23 -43 -23 -30 0 -55 4 -55 10 0 5 7 6 17 3 11 -4 14 -3 9 5 -10 17 -36 15
-42 -3 -4 -11 -21 -15 -56 -15 -31 0 -47 4 -43 10 4 6 11 7 17 4 7 -4 8 -2 4
4 -9 15 -21 15 -34 0z m78 -32 c0 -11 -19 -15 -25 -6 -3 5 1 10 9 10 9 0 16
-2 16 -4z"/>
<path d="M1720 710 c17 -5 19 -8 8 -9 -10 -1 -18 -8 -18 -16 0 -18 16 -20 24
-2 3 6 4 3 3 -7 -1 -10 4 -21 11 -23 6 -3 12 4 13 14 0 16 1 16 9 -2 8 -19 9
-19 9 2 1 12 -4 25 -11 29 -8 5 -6 10 8 15 12 5 2 7 -31 7 -39 0 -45 -2 -25
-8z"/>
<path d="M482 544 c-2 -31 2 -44 14 -48 26 -10 44 13 43 53 l-2 36 -6 -35 c-9
-51 -38 -53 -44 -3 l-4 38 -1 -41z"/>
<path d="M557 573 c-12 -11 -8 -75 4 -68 6 4 8 14 5 22 -4 11 -2 13 9 9 18 -7
19 3 1 26 -7 10 -16 15 -19 11z"/>
<path d="M599 555 c-1 -14 -2 -30 -3 -37 -1 -6 5 -13 12 -15 8 -3 12 8 12 36
0 44 -19 58 -21 16z"/>
<path d="M630 540 c0 -25 4 -39 10 -35 6 3 10 19 10 35 0 16 -4 32 -10 35 -6
4 -10 -10 -10 -35z"/>
<path d="M668 573 c6 -2 12 -20 12 -39 0 -21 4 -33 10 -29 6 3 7 17 4 30 -4
16 0 26 13 34 15 9 12 10 -17 10 -19 0 -29 -3 -22 -6z"/>
<path d="M730 535 c0 -41 2 -45 25 -45 14 0 25 5 25 10 0 6 -9 10 -20 10 -11
0 -20 5 -20 10 0 6 9 10 20 10 11 0 20 5 20 10 0 6 -9 10 -20 10 -27 0 -25 18
3 23 19 4 18 4 -5 6 -27 1 -28 -1 -28 -44z"/>
<path d="M800 541 c0 -44 10 -55 39 -46 43 13 30 85 -14 85 -22 0 -25 -4 -25
-39z m48 -4 c3 -22 -1 -27 -17 -27 -15 0 -21 6 -21 23 0 46 33 49 38 4z"/>
<path d="M913 540 c0 -25 2 -35 4 -22 2 12 2 32 0 45 -2 12 -4 2 -4 -23z"/>
<path d="M941 540 c1 -35 3 -40 8 -20 l7 25 15 -22 c21 -34 29 -28 28 20 -2
32 -3 35 -6 13 l-5 -29 -23 29 -24 29 0 -45z"/>
<path d="M1017 561 c-8 -31 2 -59 24 -64 25 -7 41 15 37 50 -2 22 -9 29 -29
31 -20 2 -28 -2 -32 -17z m48 -21 c0 -16 -6 -26 -17 -28 -14 -3 -18 3 -18 28
0 25 4 31 18 28 11 -2 17 -12 17 -28z"/>
<path d="M1099 568 c0 -7 -2 -25 -3 -40 -1 -16 2 -28 6 -28 4 0 8 18 8 40 0
22 -2 40 -5 40 -3 0 -5 -6 -6 -12z"/>
<path d="M1132 547 c-16 -45 -15 -49 9 -35 17 10 23 10 26 1 3 -7 8 -13 13
-13 5 0 1 18 -7 40 -9 22 -19 40 -23 40 -3 0 -11 -15 -18 -33z"/>
<path d="M1233 540 c0 -25 2 -35 4 -22 2 12 2 32 0 45 -2 12 -4 2 -4 -23z"/>
<path d="M1261 540 c1 -35 3 -40 8 -20 l7 25 12 -22 c20 -36 32 -27 31 20 -2
32 -3 35 -6 13 l-5 -29 -23 29 -24 29 0 -45z"/>
<path d="M1337 566 c-6 -16 11 -36 30 -36 7 0 13 -5 13 -11 0 -7 -10 -9 -27
-4 -23 5 -25 4 -14 -9 17 -20 35 -20 50 -2 9 11 8 18 -4 30 -9 9 -21 16 -26
16 -5 0 -9 5 -9 11 0 6 9 9 20 6 11 -3 18 -1 14 4 -8 14 -41 11 -47 -5z"/>
<path d="M1409 569 c-8 -18 0 -67 12 -75 5 -3 18 0 29 6 15 8 20 21 20 48 -1
30 -3 34 -11 19 -5 -9 -8 -21 -5 -26 3 -4 -1 -17 -9 -27 -16 -22 -22 -12 -27
41 -2 20 -5 25 -9 14z"/>
<path d="M1480 541 c0 -23 5 -41 10 -41 6 0 10 7 10 15 0 8 5 15 10 15 6 0 13
-7 16 -15 11 -26 19 -16 19 23 0 34 -2 37 -32 40 -32 3 -33 2 -33 -37z m54 20
c3 -5 -1 -12 -10 -15 -22 -9 -24 -8 -24 9 0 16 25 21 34 6z"/>
<path d="M1571 544 c-7 -19 -10 -38 -7 -41 3 -4 6 -1 6 5 0 7 9 12 20 12 11 0
20 -5 20 -12 0 -6 3 -9 6 -5 7 7 -15 77 -25 77 -4 0 -13 -16 -20 -36z m29 -4
c0 -5 -4 -10 -10 -10 -5 0 -10 5 -10 10 0 6 5 10 10 10 6 0 10 -4 10 -10z"/>
<path d="M1630 546 c0 -38 20 -61 21 -24 l0 23 16 -22 c22 -33 33 -28 33 13 0
22 -4 33 -11 29 -6 -4 -8 -14 -5 -24 3 -9 -4 -4 -17 12 -30 36 -37 34 -37 -7z"/>
<path d="M1722 568 c-32 -32 -1 -89 37 -68 28 14 26 22 -3 14 -26 -6 -40 14
-29 42 4 11 13 14 30 9 16 -4 22 -2 18 5 -8 14 -38 13 -53 -2z"/>
<path d="M1790 540 c0 -43 21 -63 43 -41 8 8 5 11 -11 11 -12 0 -22 5 -22 10
0 6 9 10 20 10 11 0 20 5 20 10 0 6 -9 10 -20 10 -30 0 -24 18 8 23 25 4 25 4
-5 6 -32 1 -33 0 -33 -39z"/>
<path d="M1900 566 c-15 -20 -9 -56 12 -70 14 -8 22 -7 35 7 17 18 17 18 -9
12 -21 -5 -29 -3 -34 9 -8 20 15 49 33 42 7 -3 13 -1 13 4 0 15 -36 12 -50 -4z"/>
<path d="M1971 558 c-5 -14 -5 -30 1 -41 23 -45 71 -25 66 27 -2 25 -8 32 -31
34 -21 3 -29 -2 -36 -20z m54 -18 c0 -29 -32 -41 -41 -16 -9 24 4 48 23 44 12
-2 18 -12 18 -28z"/>
<path d="M2112 538 c2 -34 7 -42 26 -44 12 -2 22 1 22 6 0 6 -7 10 -15 10 -10
0 -15 11 -15 35 0 19 -5 35 -11 35 -6 0 -9 -17 -7 -42z"/>
<path d="M2178 573 c6 -2 12 -20 12 -39 0 -19 5 -34 10 -34 6 0 10 15 10 34 0
19 6 37 13 39 6 3 -4 5 -23 5 -19 0 -29 -2 -22 -5z"/>
<path d="M2240 541 c0 -22 5 -43 10 -46 18 -11 50 6 56 31 8 30 -11 54 -42 54
-21 0 -24 -5 -24 -39z m48 12 c13 -24 4 -43 -19 -43 -13 0 -19 7 -19 23 0 39
23 50 38 20z"/>
<path d="M40 380 c0 -7 393 -10 1160 -10 767 0 1160 3 1160 10 0 7 -393 10
-1160 10 -767 0 -1160 -3 -1160 -10z"/>
</g>
</svg>
