<svg width="24" height="24" viewBox="0 0 24 24" fill="none" xmlns="http://www.w3.org/2000/svg">
<mask id="mask0_6838_17153" style="mask-type:luminance" maskUnits="userSpaceOnUse" x="0" y="0" width="24" height="24">
<path d="M0 0H24V24H0V0Z" fill="white"/>
</mask>
<g mask="url(#mask0_6838_17153)">
<path d="M14.0864 18.917C14.0953 18.9957 14.0999 19.0756 14.0999 19.1566C14.0999 20.3168 13.1594 21.2573 11.9992 21.2573C10.839 21.2573 9.89844 20.3168 9.89844 19.1566C9.89844 19.0693 9.90378 18.9833 9.91414 18.8988L14.0864 18.917Z" fill="black"/>
<path d="M10.2451 10.9232C10.2451 11.418 9.84391 11.8191 9.34909 11.8191C8.85428 11.8191 8.45312 11.418 8.45312 10.9232C8.45312 10.4283 8.85428 10.0272 9.34909 10.0272C9.84391 10.0272 10.2451 10.4283 10.2451 10.9232Z" fill="black"/>
<path d="M13.7539 10.9232C13.7539 11.418 14.1551 11.8191 14.6498 11.8191C15.1447 11.8191 15.5458 11.418 15.5458 10.9232C15.5458 10.4283 15.1447 10.0272 14.6498 10.0272C14.1551 10.0272 13.7539 10.4283 13.7539 10.9232Z" fill="black"/>
<path d="M19.2539 13.6721C19.5007 13.7765 19.7721 13.8342 20.0569 13.8342C21.1961 13.8342 22.1197 12.9106 22.1197 11.7714C22.1197 10.6321 21.1961 9.70852 20.0569 9.70852C19.8186 9.70852 19.5897 9.74898 19.3768 9.82327" stroke="black" stroke-width="0.6" stroke-miterlimit="10" stroke-linecap="round" stroke-linejoin="round"/>
<path d="M4.75408 13.6681C4.5048 13.775 4.23016 13.8342 3.94173 13.8342C2.80244 13.8342 1.87891 12.9106 1.87891 11.7714C1.87891 10.6321 2.80244 9.70852 3.94173 9.70852C4.177 9.70852 4.40313 9.74795 4.61378 9.82046" stroke="black" stroke-width="0.6" stroke-miterlimit="10" stroke-linecap="round" stroke-linejoin="round"/>
<path d="M15.7241 18.9836H8.26481C5.79727 18.9836 3.79688 20.984 3.79688 23.4516V23.5312H20.192V23.4516C20.192 20.984 18.1917 18.9836 15.7241 18.9836Z" stroke="black" stroke-width="0.6" stroke-miterlimit="10" stroke-linecap="round" stroke-linejoin="round"/>
<path d="M19.5203 11.4638C19.5203 7.3106 16.1535 3.94385 12.0003 3.94385C7.84722 3.94385 4.48047 7.3106 4.48047 11.4638C4.48047 15.6169 7.84722 18.9836 12.0003 18.9836C16.1535 18.9836 19.5203 15.6169 19.5203 11.4638Z" stroke="black" stroke-width="0.6" stroke-miterlimit="10" stroke-linecap="round" stroke-linejoin="round"/>
<path d="M12.5886 1.89373C12.5886 1.1067 11.9506 0.468729 11.1636 0.468729C10.4304 0.468729 9.83594 1.0631 9.83594 1.79642C9.83594 2.98835 10.8022 3.95459 11.9941 3.95459" stroke="black" stroke-width="0.6" stroke-miterlimit="10" stroke-linecap="round" stroke-linejoin="round"/>
<path d="M13.4937 13.8342C13.4937 14.6846 12.8043 15.374 11.9539 15.374C11.1035 15.374 10.4141 14.6846 10.4141 13.8342" stroke="black" stroke-width="0.6" stroke-miterlimit="10" stroke-linecap="round" stroke-linejoin="round"/>
</g>
</svg>
