<svg width="14" height="17" viewBox="0 0 14 17" fill="none" xmlns="http://www.w3.org/2000/svg">
<path d="M6.9999 2.09448L2.06641 2.90526V7.73749C2.06641 10.8638 4.1476 13.5017 6.9999 14.3469C9.8522 13.5017 11.9334 10.8636 11.9334 7.73749V2.90526L6.9999 2.09448Z" fill="#FFC400"/>
<path d="M6.99978 2.09434L11.9333 2.90512V7.73735C11.9333 10.8636 9.85208 13.5016 6.99978 14.3468C4.14748 13.5016 2.06629 10.8634 2.06629 7.73735V2.90512L6.99978 2.09434ZM6.99978 0L6.66464 0.0550164L1.73115 0.866232L0 1.15052V2.90512V7.73735C0 9.70851 0.628413 11.5788 1.81729 13.1465C2.96606 14.6606 4.59813 15.7906 6.41279 16.3282L6.99978 16.5023L7.58699 16.3282C9.40165 15.7906 11.0337 14.6609 12.1825 13.1465C13.3716 11.5791 14 9.70851 14 7.73735V2.90512V1.15052L12.2689 0.866232L7.33514 0.0550164L6.99978 0Z" fill="#FFAB00"/>
<path d="M6.99978 14.347C4.14748 13.5018 2.06629 10.8636 2.06629 7.73757V2.90512L6.99978 2.09434V0L6.66464 0.0550164L1.73115 0.866232L0 1.15052V2.90512V7.73735C0 9.70851 0.628413 11.5788 1.81729 13.1465C2.96606 14.6606 4.59813 15.7906 6.41279 16.3282L6.99978 16.5023V14.347Z" fill="#FFD740"/>
<path d="M6.9999 2.78186L11.255 3.48107V7.73749C11.255 10.4026 9.51509 12.7992 6.9999 13.6361C4.48449 12.7992 2.74458 10.4026 2.74458 7.73749V3.48107L6.9999 2.78186ZM6.9999 2.09448L2.06641 2.90526V7.73749C2.06641 10.8638 4.1476 13.5017 6.9999 14.3469C9.8522 13.5017 11.9334 10.8636 11.9334 7.73749V2.90526L6.9999 2.09448Z" fill="#FFAB00"/>
<path d="M11.259 3.48107V7.73749C11.259 10.4026 9.51909 12.7992 7.00391 13.6361V14.3469C9.8562 13.5017 11.9374 10.8636 11.9374 7.73749V2.90526L7.00391 2.09448V2.78186L11.259 3.48107Z" fill="#FFC400"/>
<path d="M11.259 3.48107L11.9374 2.90526L7.00391 2.09448V2.78186L11.259 3.48107Z" fill="#FFD740"/>
<path d="M2.74458 3.48107L2.06641 2.90526L6.9999 2.09448V2.78186L2.74458 3.48107Z" fill="#FFC400"/>
</svg>
