<svg width="24" height="24" viewBox="0 0 24 24" fill="none" xmlns="http://www.w3.org/2000/svg">
<g clip-path="url(#clip0_6838_17178)">
<path d="M12 15.375C10.725 15.375 10.275 15.075 9.8625 14.775C9.7875 14.7 9.7125 14.6625 9.6 14.5875C8.925 14.3625 7.6875 13.3875 7.2375 11.1C6.7125 10.9125 6 10.35 6 9C6 7.95 6.4875 7.6125 6.525 7.575C6.7125 7.4625 6.9375 7.5 7.05 7.6875C7.1625 7.875 7.125 8.1 6.9375 8.2125C6.75 8.325 6.7125 8.4 6.7125 9.0375C6.7125 10.3125 7.5 10.4625 7.575 10.4625C7.725 10.5 7.875 10.6125 7.9125 10.7625C8.25 12.975 9.4125 13.8 9.825 13.9125C9.8625 13.9125 9.9 13.95 9.9 13.95C10.0125 14.025 10.125 14.1 10.2375 14.175C10.6125 14.4375 10.9125 14.6625 11.9625 14.6625C13.0125 14.6625 13.3125 14.4375 13.6875 14.175C13.8 14.1 13.9125 14.025 14.025 13.95C14.0625 13.95 14.0625 13.9125 14.1 13.9125C14.5125 13.8 15.675 12.975 16.0125 10.7625C16.05 10.575 16.1625 10.4625 16.35 10.4625C16.425 10.4625 17.2125 10.3125 17.2125 9.0375C17.2125 8.4 16.9875 8.2125 16.9875 8.2125C16.8 8.1 16.7625 7.875 16.9125 7.6875C17.025 7.5 17.2875 7.4625 17.4375 7.6125C17.475 7.65 17.9625 8.025 17.9625 9.0375C17.9625 10.3875 17.25 10.95 16.725 11.1375C16.3125 13.425 15.0375 14.4 14.3625 14.625C14.25 14.7 14.175 14.7375 14.1 14.8125C13.725 15.075 13.275 15.375 12 15.375Z" fill="black"/>
<path d="M17.251 8.25C17.176 8.25 17.101 8.25 17.0635 8.175C15.8635 7.425 15.8635 6.375 15.826 5.475C15.7885 4.6875 15.7885 3.9375 15.1135 3.2625C14.701 2.85 13.651 2.625 12.001 2.625C10.351 2.625 9.30104 2.85 8.88854 3.2625C8.21354 3.9375 8.21354 4.6875 8.17604 5.475C8.13854 6.4125 8.13854 7.4625 6.93854 8.175C6.75104 8.2875 6.52604 8.2125 6.41354 8.0625C6.30104 7.875 6.37604 7.65 6.52604 7.5375C7.35104 7.0125 7.38854 6.3375 7.42604 5.4375C7.46354 4.575 7.46354 3.6 8.36354 2.7C8.96354 2.1375 10.0885 1.875 12.001 1.875C13.9135 1.875 15.0385 2.1375 15.6385 2.7375C16.501 3.6 16.5385 4.6125 16.576 5.475C16.6135 6.3375 16.6135 7.05 17.476 7.575C17.6635 7.6875 17.701 7.9125 17.5885 8.1C17.5135 8.175 17.3635 8.25 17.251 8.25Z" fill="black"/>
<path d="M15.0375 15.9375C14.85 15.9375 14.7 15.825 14.6625 15.6375C14.625 15.4875 14.625 15.375 14.625 15.225V13.8C14.625 13.575 14.775 13.425 15 13.425C15.225 13.425 15.375 13.575 15.375 13.8V15.225C15.375 15.3 15.375 15.375 15.4125 15.4875C15.45 15.675 15.3375 15.9 15.15 15.9375C15.1125 15.9375 15.075 15.9375 15.0375 15.9375Z" fill="black"/>
<path d="M9.03691 15.9374C8.99941 15.9374 8.96191 15.9374 8.96191 15.9374C8.77441 15.8999 8.62441 15.6749 8.69941 15.4874C8.73691 15.4124 8.73691 15.2999 8.73691 15.2249V13.8374C8.73691 13.6124 8.88691 13.4624 9.11191 13.4624C9.33691 13.4624 9.48691 13.6124 9.48691 13.8374V15.2249C9.48691 15.3749 9.48691 15.5249 9.44941 15.6374C9.33691 15.8249 9.18691 15.9374 9.03691 15.9374Z" fill="black"/>
<path d="M23.25 23.6249C23.025 23.6249 22.875 23.4749 22.875 23.2499C22.875 21.4124 21.75 20.4374 19.575 19.1999C18.675 18.7124 17.4 17.9999 17.2875 17.9624C17.25 17.9249 17.2125 17.9249 17.175 17.8874C17.1 17.8124 17.0625 17.7374 17.0625 17.6249C17.0625 17.5124 17.1 17.3999 17.175 17.3624C17.2125 17.2874 17.2875 17.2499 17.3625 17.2874C17.475 17.2874 17.5875 17.3249 17.6625 17.3624C18 17.5124 18.675 17.8874 19.9125 18.5624C22.3125 19.9124 23.625 21.0374 23.625 23.2499C23.625 23.4749 23.475 23.6249 23.25 23.6249Z" fill="black"/>
<path d="M0.75 23.6249C0.525 23.6249 0.375 23.4749 0.375 23.2499C0.375 21.0374 1.6875 19.9124 4.05 18.5624C5.2875 17.8499 5.925 17.5124 6.3 17.3624C6.375 17.2874 6.4875 17.2499 6.6 17.2874C6.7125 17.2874 6.75 17.3249 6.7875 17.3624C6.8625 17.4374 6.9 17.5124 6.9 17.6249C6.9 17.7374 6.8625 17.8124 6.7875 17.8874C6.75 17.9249 6.7125 17.9624 6.675 17.9624C6.5625 17.9999 5.2875 18.7124 4.3875 19.1999C2.25 20.4374 1.125 21.4124 1.125 23.2499C1.125 23.4749 0.975 23.6249 0.75 23.6249Z" fill="black"/>
<path d="M17.3625 8.3625C17.325 8.3625 17.2875 8.3625 17.2125 8.325C17.025 8.25 16.9125 8.025 16.9875 7.8375C17.25 7.2 17.25 6.375 17.25 5.6625C17.25 2.625 15.525 1.125 12 1.125C8.475 1.125 6.75 2.625 6.75 5.7C6.75 6.4125 6.75 7.2 7.0125 7.875C7.0875 8.0625 6.975 8.2875 6.7875 8.3625C6.6 8.4375 6.375 8.325 6.3 8.1375C6 7.35 6 6.4125 6 5.7C6 2.175 8.025 0.375 12 0.375C15.975 0.375 18 2.175 18 5.7C18 6.4125 18 7.35 17.7 8.1375C17.6625 8.25 17.5125 8.3625 17.3625 8.3625Z" fill="black"/>
<path d="M11.9986 20.6251C11.8486 20.6251 11.7361 20.5501 11.6611 20.4376C11.2486 19.7251 10.6486 19.0126 10.0486 18.3751C9.07362 17.2501 8.24862 16.3126 8.62362 15.4126C8.69862 15.2251 8.92362 15.1126 9.11112 15.2251C9.29862 15.3001 9.41112 15.5251 9.29862 15.7126C9.11112 16.1626 9.86112 17.0251 10.6111 17.8501C11.0611 18.3751 11.5861 18.9376 11.9986 19.5376C12.4111 18.9376 12.8986 18.3751 13.3861 17.8501C14.1361 17.0251 14.8861 16.1626 14.6986 15.7126C14.6236 15.5251 14.6986 15.3001 14.8861 15.2251C15.0736 15.1501 15.2986 15.2251 15.3736 15.4126C15.7486 16.3126 14.8861 17.2501 13.9111 18.3376C13.3111 19.0126 12.7111 19.6876 12.2986 20.4001C12.2611 20.5501 12.1486 20.6251 11.9986 20.6251Z" fill="black"/>
<path d="M16.1242 19.8749C16.0867 19.8749 16.0867 19.8749 16.1242 19.8749C15.9742 19.8749 15.8617 19.7999 15.8242 19.7249C15.2992 18.9374 14.7367 18.4499 14.2867 18.4124C14.0617 18.4124 13.8742 18.4874 13.6492 18.7124C13.4992 18.8624 13.2742 18.8624 13.1242 18.7124C12.9742 18.5624 12.9742 18.3374 13.1242 18.1874C13.5742 17.6999 14.0617 17.6249 14.3617 17.6624C15.0742 17.7374 15.7117 18.2999 16.1992 18.9374C16.6117 18.4874 16.9867 17.9999 17.0992 17.7749C16.6117 17.2499 15.5992 16.2374 14.9617 15.9374C14.7742 15.8624 14.6992 15.6374 14.7742 15.4499C14.8492 15.2624 15.0742 15.1874 15.2617 15.2624C16.2742 15.7124 17.7367 17.3624 17.8117 17.4374C17.8867 17.5124 17.9242 17.5874 17.9242 17.6999C17.9242 18.2624 17.0242 19.2749 16.4617 19.8374C16.3117 19.8374 16.1992 19.8749 16.1242 19.8749Z" fill="black"/>
<path d="M7.87344 19.8749C7.76094 19.8749 7.68594 19.8374 7.61094 19.7624C7.08594 19.1999 6.14844 18.1874 6.14844 17.6249C6.14844 17.5499 6.18594 17.4374 6.26094 17.3624C6.33594 17.2874 7.76094 15.6749 8.81094 15.1874C8.99844 15.1124 9.22344 15.1874 9.29844 15.3749C9.37344 15.5624 9.29844 15.7874 9.11094 15.8624C8.43594 16.1624 7.42344 17.1749 6.97344 17.6999C7.08594 17.9249 7.42344 18.4124 7.87344 18.8624C8.36094 18.2624 8.99844 17.6624 9.71094 17.5874C10.0109 17.5499 10.4984 17.6249 10.9484 18.1124C11.0984 18.2624 11.0984 18.4874 10.9484 18.6374C10.7984 18.7874 10.5734 18.7874 10.4234 18.6374C10.2359 18.4124 10.0109 18.3374 9.78594 18.3374C9.33594 18.3749 8.77344 18.8624 8.24844 19.6499C8.13594 19.7999 8.02344 19.8749 7.87344 19.8749C7.91094 19.8749 7.91094 19.8749 7.87344 19.8749Z" fill="black"/>
<path d="M11.9997 23.625C11.9247 23.625 11.8122 23.5875 11.7747 23.55C10.2747 22.275 8.99973 20.775 8.09973 19.05C7.98723 18.8625 8.06223 18.6375 8.24973 18.525C8.43723 18.4125 8.66223 18.4875 8.77473 18.675C9.59973 20.25 10.7247 21.6 12.0372 22.7625C13.3872 21.6 14.4747 20.25 15.2997 18.675C15.4122 18.4875 15.6372 18.4125 15.8247 18.525C16.0122 18.6375 16.0872 18.8625 15.9747 19.05C15.0372 20.775 13.7997 22.3125 12.2997 23.55C12.1872 23.5875 12.0747 23.625 11.9997 23.625Z" fill="black"/>
</g>
<defs>
<clipPath id="clip0_6838_17178">
<rect width="24" height="24" fill="white"/>
</clipPath>
</defs>
</svg>
