<svg width="80" height="80" viewBox="0 0 80 80" fill="none" xmlns="http://www.w3.org/2000/svg">
<path d="M59.326 34.999C59.326 34.999 65.1905 37.9081 63.0111 49.4686C63.0111 49.4686 53.0472 46.2964 54.2725 37.0196L59.326 34.999ZM20.6706 34.999C20.6706 34.999 14.8061 37.9081 16.9855 49.4686C16.9855 49.4686 26.9494 46.2964 25.7241 37.0196L20.6706 34.999Z" fill="#CF8151"/>
<path d="M55.6017 36.4885L54.2736 37.0196C53.0484 46.2965 63.0122 49.4685 63.0122 49.4685C63.2291 48.3185 63.365 47.2556 63.4364 46.2712C61.2228 45.3023 56.0038 42.4029 55.6017 36.4885ZM25.7253 37.0196L24.3972 36.4885C23.9952 42.4029 18.7761 45.3023 16.5625 46.2712C16.6337 47.2556 16.7698 48.3185 16.9867 49.4685C16.9866 49.4687 26.9505 46.2965 25.7253 37.0196Z" fill="#BD6E45"/>
<path d="M63.5936 78.75H16.4023V66.1843C16.4023 56.1344 24.5494 47.9875 34.5991 47.9875H45.3969C55.4467 47.9875 63.5936 56.1346 63.5936 66.1843V78.75Z" fill="#B3E59F"/>
<path d="M16.4023 75.9375H63.5938V78.75H16.4023V75.9375Z" fill="#95D6A4"/>
<path d="M59.5035 29.675C64.0163 7.49547 50.9456 1.25 39.9967 1.25C29.0478 1.25 15.977 7.49547 20.4898 29.675H59.5035Z" fill="#CF8151"/>
<path d="M39.9994 13.8459C45.1417 22.9777 54.7683 27.3033 54.7683 27.3033V33.2186C54.7683 41.3752 48.1559 47.9875 39.9994 47.9875C31.8428 47.9875 25.2305 41.3753 25.2305 33.2186V27.3033C25.2305 27.3033 34.857 22.9777 39.9994 13.8459Z" fill="#F0C69E"/>
<path d="M39.9994 45.1749C31.8428 45.1749 25.2305 38.5627 25.2305 30.406V33.2185C25.2305 41.3751 31.8427 47.9874 39.9994 47.9874C48.1559 47.9874 54.7683 41.3752 54.7683 33.2185V30.406C54.7683 38.5627 48.1559 45.1749 39.9994 45.1749Z" fill="#E6BA94"/>
<path d="M25.2267 33.2186V27.2995C25.0575 27.2822 24.8876 27.2734 24.7175 27.2734C21.9977 27.2734 19.793 29.4781 19.793 32.198C19.793 34.9177 21.9977 37.1225 24.7175 37.1225C25.0616 37.1225 25.3973 37.087 25.7214 37.0197C25.3924 35.7795 25.2261 34.5017 25.2267 33.2186ZM55.2738 27.2734C55.1019 27.2734 54.9319 27.2823 54.7645 27.2995V33.2186C54.7652 34.5017 54.5989 35.7795 54.2697 37.0197C54.6 37.0881 54.9364 37.1226 55.2738 37.1225C57.9934 37.1225 60.1983 34.9177 60.1983 32.198C60.1983 29.4781 57.9934 27.2734 55.2738 27.2734Z" fill="#E2AE84"/>
<path d="M24.7175 34.3098C22.4866 34.3098 20.6031 32.8259 19.9978 30.7915C19.8619 31.2479 19.7929 31.7216 19.793 32.1978C19.793 34.9174 21.9977 37.1223 24.7175 37.1223C25.0616 37.1223 25.3973 37.0868 25.7214 37.0195C25.4835 36.1222 25.3308 35.2045 25.2653 34.2785C25.0855 34.2985 24.9028 34.3098 24.7175 34.3098ZM55.2738 34.3098C55.0884 34.3098 54.9058 34.2987 54.7258 34.2787C54.6603 35.2046 54.5077 36.1223 54.2698 37.0196C54.6001 37.0881 54.9366 37.1225 55.2739 37.1224C57.9936 37.1224 60.1984 34.9176 60.1984 32.1979C60.1984 31.7092 60.1263 31.2374 59.9936 30.7917C59.3881 32.8257 57.5047 34.3098 55.2738 34.3098Z" fill="#D7A379"/>
<path d="M46.0577 47.9875C46.0577 47.9875 46.3356 55.216 39.9985 55.216C33.6615 55.216 33.9393 47.9875 33.9393 47.9875H46.0577Z" fill="#E2AE84"/>
</svg>
