<svg width="133" height="56" viewBox="0 0 133 56" fill="none" xmlns="http://www.w3.org/2000/svg">
<path d="M31.9883 5.0041C32.0256 5.00389 32.0629 5.00368 32.1012 5.00347C32.1799 5.00313 32.2585 5.0029 32.3371 5.00276C32.4542 5.00241 32.5712 5.00129 32.6883 5.00015C33.3837 4.9966 34.0734 5.05574 34.7516 5.21887C34.7909 5.22811 34.8302 5.23734 34.8707 5.24686C36.5041 5.64332 38.0915 6.55882 39.1663 7.89762C39.1942 7.93022 39.2221 7.96282 39.2509 7.99641C39.679 8.49792 40.0424 9.03667 40.356 9.61991C40.397 9.69594 40.4388 9.77138 40.4809 9.84679C40.9642 10.7286 41.5631 12.0246 41.5631 13.0567C41.5861 13.0594 41.6092 13.0621 41.6329 13.0649C41.7799 13.1034 41.9008 13.1745 42.0323 13.2506C42.0603 13.2667 42.0883 13.2828 42.1171 13.2994C42.9153 13.7665 43.6915 14.384 44.2771 15.1131C44.3196 15.1626 44.3196 15.1626 44.3629 15.2132C45.8884 16.9973 46.6219 19.3048 46.8964 21.6251C46.9007 21.6615 46.9007 21.6615 46.9051 21.6987C46.9645 22.2087 46.9964 22.7174 46.9983 23.2311C46.9985 23.2774 46.9988 23.3237 46.999 23.3713C46.9997 23.5198 46.9999 23.6683 47 23.8168C47 23.8421 47 23.8675 47 23.8936C47.0003 24.6875 46.9856 25.4727 46.8854 26.261C46.8793 26.3106 46.8732 26.3601 46.8671 26.4097C46.5563 28.8893 45.7285 31.2745 44.1714 33.224C44.1559 33.2436 44.1405 33.2631 44.1246 33.2833C43.6934 33.8272 43.2049 34.3556 42.6558 34.7753C42.6083 34.8131 42.5608 34.8509 42.5134 34.8888C40.9031 36.1553 38.8426 36.8653 36.8103 36.8751C36.7751 36.8754 36.7398 36.8756 36.7035 36.8759C36.5904 36.8765 36.4773 36.8768 36.3642 36.8768C36.3062 36.8769 36.3062 36.8769 36.247 36.8769C35.6626 36.8763 35.0911 36.8602 34.5137 36.7596C34.4591 36.7503 34.4591 36.7503 34.4034 36.7408C32.3736 36.3854 30.5095 35.4367 29.0056 33.9989C28.9179 33.9173 28.8257 33.8409 28.7332 33.7652C28.7216 39.1227 28.71 44.4802 28.698 50C26.9998 50 25.3016 50 23.5519 50C23.5519 47.6308 23.5519 45.2616 23.5519 42.8206C21.8654 42.8206 20.1788 42.8206 18.4411 42.8206C18.4408 42.4098 18.4405 41.999 18.4403 41.5757C18.4401 41.297 18.4399 41.0182 18.4397 40.7395C18.4396 40.7033 18.4396 40.6671 18.4396 40.6297C18.4379 38.2315 18.4361 35.8332 18.434 33.4349C18.434 33.3886 18.4339 33.3423 18.4339 33.2945C18.433 32.3123 18.4322 31.3301 18.4313 30.3479C18.4309 29.8545 18.4304 29.3611 18.43 28.8676C18.4299 28.7932 18.4299 28.7188 18.4298 28.6444C18.4288 27.4989 18.4278 26.3534 18.427 25.208C18.427 25.1834 18.427 25.1588 18.427 25.1334C18.4267 24.7367 18.4265 24.3399 18.4262 23.9432C18.4251 22.2824 18.4238 20.6216 18.4221 18.9608C18.4219 18.7296 18.4217 18.4984 18.4214 18.2672C18.4214 18.2217 18.4214 18.1761 18.4213 18.1293C18.4206 17.3975 18.4202 16.6656 18.4198 15.9338C18.4194 15.1977 18.4188 14.4616 18.4179 13.7255C18.4174 13.2884 18.417 12.8513 18.417 12.4142C18.4169 12.1218 18.4166 11.8294 18.4161 11.537C18.4158 11.3707 18.4157 11.2044 18.4158 11.0381C18.4716 9.28897 18.4716 9.28897 17.9124 7.68116C17.2774 7.14036 16.2136 7.10716 15.4275 7.02274C15.3998 7.01975 15.372 7.01675 15.3434 7.01367C15.0112 6.97836 14.6795 6.95111 14.3458 6.93631C14.224 6.9305 14.119 6.9179 14 6.88745C14 6.43504 14 5.98263 14 5.51651C17.1638 5.51651 20.3275 5.51651 23.5872 5.51651C23.5988 6.93327 23.6104 8.35003 23.6224 9.80972C23.762 9.63114 23.9016 9.45256 24.0454 9.26856C24.2555 9.0005 24.4735 8.74404 24.7019 8.49256C24.7801 8.40572 24.8564 8.31719 24.9332 8.22908C25.052 8.09517 25.1733 7.9724 25.3086 7.85619C25.4008 7.77531 25.4881 7.68981 25.5764 7.60449C27.2746 5.99242 29.6759 5.01436 31.9883 5.0041Z" fill="#006488"/>
<path d="M41.6672 12C41.781 12.0206 41.8726 12.048 41.9737 12.1076C41.9983 12.1221 42.023 12.1366 42.0484 12.1515C42.0745 12.1673 42.1006 12.1832 42.1275 12.1995C42.1549 12.216 42.1823 12.2326 42.2106 12.2496C42.9935 12.7301 43.7549 13.3653 44.3293 14.1152C44.3709 14.1662 44.3709 14.1662 44.4134 14.2182C45.9096 16.0533 46.6291 18.4269 46.8984 20.8135C46.9026 20.8509 46.9026 20.8509 46.9069 20.8891C46.9651 21.4138 46.9965 21.937 46.9983 22.4654C46.9986 22.513 46.9988 22.5606 46.9991 22.6097C46.9997 22.7624 46.9999 22.9151 47 23.0679C47 23.0939 47 23.12 47 23.1468C47.0002 23.9635 46.9859 24.7711 46.8876 25.582C46.8816 25.633 46.8756 25.684 46.8696 25.7349C46.5648 28.2854 45.7529 30.7389 44.2256 32.7441C44.2104 32.7643 44.1953 32.7844 44.1796 32.8052C43.7567 33.3646 43.2776 33.9081 42.739 34.3398C42.6924 34.3787 42.6459 34.4176 42.5993 34.4565C41.0199 35.7593 38.9989 36.4896 37.0054 36.4997C36.9709 36.5 36.9364 36.5002 36.9008 36.5005C36.7898 36.5012 36.6789 36.5014 36.5679 36.5015C36.511 36.5015 36.511 36.5015 36.4529 36.5015C35.8797 36.5009 35.3192 36.4844 34.7529 36.3809C34.7172 36.3745 34.6815 36.3681 34.6447 36.3616C32.6537 35.996 30.8253 35.0201 29.3502 33.5413C29.2643 33.4573 29.1738 33.3787 29.0831 33.3008C29.0717 38.8115 29.0603 44.3223 29.0485 50C27.3829 50 25.7172 50 24.001 50C24.0003 48.4154 24.0003 48.4154 24.0002 47.8113C24.0001 47.7735 24.0001 47.7356 24.0001 47.6967C23.9994 44.5258 24.002 41.355 24.0086 38.1841C24.0087 38.1384 24.0088 38.0928 24.0089 38.0457C24.0113 36.8881 24.0138 35.7305 24.0164 34.573C24.0179 33.9031 24.0194 33.2332 24.0208 32.5634C24.0209 32.5152 24.021 32.4671 24.0212 32.4175C24.0217 32.1756 24.0222 31.9337 24.0227 31.6917C24.0269 29.7294 24.0312 27.767 24.0356 25.8047C24.0742 25.8401 24.1129 25.8755 24.1515 25.911C24.173 25.9307 24.1945 25.9505 24.2166 25.9708C24.291 26.0398 24.3632 26.1111 24.4353 26.1827C24.6504 26.3909 24.8771 26.5813 25.1073 26.7695C25.1387 26.7952 25.1387 26.7952 25.1707 26.8215C26.8258 28.1706 28.8908 29.0259 30.9817 29.042C31.0205 29.0424 31.0594 29.0428 31.0994 29.0431C32.255 29.0517 33.3197 28.9803 34.4417 28.6621C34.4722 28.6536 34.5027 28.6451 34.5341 28.6363C35.7089 28.3028 36.8273 27.6775 37.7606 26.8438C37.7987 26.8105 37.8368 26.7773 37.8749 26.744C38.3632 26.3117 38.8296 25.8271 39.2126 25.2852C39.2467 25.2389 39.2808 25.1926 39.315 25.1464C39.7856 24.5051 40.178 23.8207 40.5264 23.0957C40.5404 23.0665 40.5545 23.0373 40.569 23.0072C41.6025 20.8359 41.9678 18.2917 41.9573 15.8756C41.9568 15.7384 41.9571 15.6012 41.9577 15.4641C41.9613 14.4799 41.8953 13.5102 41.7472 12.5381C41.7393 12.4845 41.7315 12.4309 41.7236 12.3773C41.7052 12.2515 41.6864 12.1257 41.6672 12Z" fill="#EB681E"/>
<path d="M39.7092 11.2049C39.741 11.2118 39.7728 11.2187 39.8056 11.2259C40.2958 11.3363 40.771 11.5185 41.2407 11.7121C41.3076 11.7393 41.3751 11.7647 41.4431 11.7881C41.6605 11.8697 41.6605 11.8697 41.7205 11.9761C41.7443 12.0626 41.7554 12.1437 41.7644 12.2339C41.7689 12.2672 41.7734 12.3005 41.7781 12.3348C41.7937 12.4545 41.8067 12.5744 41.8197 12.6945C41.8287 12.7713 41.8378 12.848 41.8469 12.9247C41.9329 13.6523 41.995 14.3722 41.9968 15.1075C41.9969 15.1357 41.997 15.1639 41.9971 15.193C41.9976 15.3429 41.9979 15.4928 41.998 15.6426C41.9982 15.7634 41.9987 15.8842 41.9994 16.0049C42.0047 16.8429 41.9727 17.6637 41.8877 18.4962C41.8842 18.5315 41.8806 18.5667 41.8769 18.603C41.858 18.7853 41.8359 18.9666 41.8112 19.1479C41.8077 19.1739 41.8042 19.1999 41.8006 19.2267C41.5395 21.1523 40.9908 23.0748 40.0836 24.7292C40.0622 24.7684 40.0408 24.8077 40.0187 24.8481C39.7443 25.3349 39.4486 25.8239 39.1019 26.2462C39.0391 26.3233 38.9791 26.4018 38.9192 26.4819C38.5821 26.9271 38.2121 27.3516 37.8029 27.7084C37.763 27.7447 37.723 27.781 37.6831 27.8173C37.3331 28.1319 36.963 28.3965 36.5775 28.6492C36.5534 28.6652 36.5294 28.6813 36.5046 28.6978C35.8137 29.1543 35.0664 29.445 34.2968 29.6685C34.2705 29.6764 34.2442 29.6844 34.2171 29.6926C34.0407 29.7458 33.8635 29.7878 33.6841 29.8253C33.6515 29.8324 33.619 29.8395 33.5854 29.8469C32.9515 29.98 32.3229 29.9977 31.68 29.9992C31.6407 29.9994 31.6013 29.9997 31.5608 29.9999C29.1053 30.0097 26.7242 28.9951 24.8838 27.1184C24.8084 27.0426 24.732 26.9749 24.6491 26.9105C24.4632 26.7566 24.3233 26.6084 24.2827 26.3401C24.2618 26.0997 24.2664 25.8595 24.2703 25.6182C24.2701 25.5257 24.2698 25.4332 24.2692 25.3407C24.2683 25.0903 24.2702 24.84 24.2725 24.5896C24.2742 24.3533 24.2739 24.117 24.2736 23.8807C24.273 23.4119 24.2744 22.9432 24.277 22.4744C24.2796 22.0215 24.2813 21.5686 24.2818 21.1157C24.2819 21.0878 24.2819 21.06 24.282 21.0313C24.2821 20.8637 24.2823 20.6962 24.2825 20.5286C24.2827 20.2829 24.2829 20.0373 24.2832 19.7917C24.2833 19.7652 24.2833 19.7387 24.2833 19.7114C24.2838 19.3224 24.285 18.9335 24.2867 18.5446C24.2873 18.3994 24.2879 18.2543 24.2884 18.1091C24.289 17.9771 24.2898 17.8452 24.2905 17.7132C24.3648 15.7133 24.3648 15.7133 23.7784 13.9097C23.1333 13.2579 21.931 13.2706 21.1233 13.1649C21.0924 13.1609 21.0615 13.1568 21.0296 13.1526C20.8102 13.1254 20.5907 13.1135 20.3702 13.1037C20.248 13.098 20.1259 13.0924 20 13.0865C20 12.595 20 12.1034 20 11.5969C23.0442 11.5969 26.0884 11.5969 29.2249 11.5969C29.2361 13.1622 29.2473 14.7275 29.2589 16.3402C29.3712 16.172 29.4836 16.0038 29.5993 15.8306C29.7005 15.6857 29.8024 15.5422 29.9057 15.3994C29.9329 15.3607 29.9601 15.3221 29.9881 15.2822C30.213 14.9673 30.4582 14.6763 30.7077 14.3875C30.7324 14.3588 30.7324 14.3588 30.7575 14.3295C30.9837 14.0669 31.2199 13.8262 31.4715 13.5961C31.5142 13.5555 31.5569 13.5148 31.5994 13.4739C32.6896 12.4397 34.0401 11.6705 35.4201 11.3225C35.4474 11.3155 35.4746 11.3086 35.5026 11.3014C35.7125 11.249 35.9231 11.2057 36.135 11.1657C36.165 11.1597 36.195 11.1537 36.226 11.1476C37.3509 10.9317 38.5907 10.9542 39.7092 11.2049Z" fill="#174052"/>
<path d="M67.8749 34.3028C67.8925 34.3029 67.9102 34.3029 67.9284 34.303C68.1963 34.3043 68.4513 34.3156 68.7112 34.3864C68.7291 34.3912 68.7471 34.3961 68.7656 34.4011C69.4258 34.5864 69.9842 34.9746 70.3996 35.5211C70.4192 35.5461 70.4388 35.5711 70.4591 35.5968C71.0126 36.3199 71.2698 37.2267 71.3824 38.1185C71.3863 38.1466 71.3863 38.1466 71.3903 38.1754C71.6221 39.8977 71.3485 41.8635 70.2984 43.2809C69.6917 44.0608 68.8795 44.5769 67.8923 44.7045C66.8811 44.8193 65.9122 44.5715 65.1037 43.9508C64.9067 43.7924 64.7321 43.6183 64.5532 43.4393C64.5449 45.6861 64.5366 47.933 64.528 50.2479C63.9209 50.2479 63.3139 50.2479 62.6884 50.2479C62.6882 50.0742 62.688 49.9006 62.6878 49.7217C62.6864 48.5744 62.685 47.4271 62.6833 46.2797C62.6833 46.2601 62.6833 46.2406 62.6832 46.2204C62.6826 45.7945 62.682 45.3687 62.6813 44.9428C62.681 44.7339 62.6807 44.5251 62.6804 44.3162C62.6804 44.2955 62.6803 44.2747 62.6803 44.2533C62.6793 43.5803 62.6785 42.9072 62.6777 42.2342C62.6769 41.5423 62.676 40.8504 62.6748 40.1585C62.6747 40.0607 62.6745 39.9628 62.6743 39.865C62.6743 39.8457 62.6743 39.8265 62.6742 39.8066C62.6737 39.4973 62.6734 39.188 62.6731 38.8787C62.6729 38.5673 62.6724 38.256 62.6718 37.9446C62.6715 37.7761 62.6712 37.6075 62.6712 37.439C62.6711 37.2844 62.6709 37.1299 62.6704 36.9753C62.6703 36.9196 62.6702 36.864 62.6703 36.8083C62.6705 36.5506 62.6671 36.295 62.6408 36.0384C62.6389 36.0194 62.6369 36.0004 62.6349 35.9808C62.6154 35.8118 62.5704 35.6558 62.512 35.4959C62.5037 35.4709 62.4954 35.446 62.4868 35.4203C62.4282 35.3918 62.4282 35.3918 62.3608 35.3698C62.3432 35.3618 62.3257 35.3538 62.3075 35.3455C61.9044 35.1671 61.4323 35.1605 61 35.1177C61 34.9263 61 34.7349 61 34.5377C62.1642 34.5377 63.3285 34.5377 64.528 34.5377C64.5363 35.1119 64.5446 35.686 64.5532 36.2776C64.653 36.1362 64.7528 35.9947 64.8556 35.849C64.9111 35.7796 64.965 35.7129 65.0241 35.6472C65.0378 35.6318 65.0515 35.6163 65.0656 35.6004C65.1045 35.5569 65.1437 35.5137 65.1832 35.4707C65.2122 35.4389 65.2122 35.4389 65.2419 35.4065C65.6808 34.9477 66.259 34.6019 66.8669 34.4258C66.8873 34.4198 66.9077 34.4139 66.9287 34.4078C67.2405 34.3235 67.553 34.301 67.8749 34.3028ZM64.8971 36.5589C64.8038 36.6636 64.7163 36.7732 64.6288 36.8828C64.6114 36.9003 64.5939 36.9178 64.5759 36.9359C64.5095 37.0372 64.5135 37.1175 64.5142 37.2362C64.5139 37.2592 64.5137 37.2821 64.5134 37.3057C64.5126 37.3826 64.5126 37.4594 64.5126 37.5363C64.5122 37.5914 64.5117 37.6464 64.5113 37.7015C64.5102 37.8512 64.5097 38.0009 64.5095 38.1506C64.5093 38.2441 64.509 38.3376 64.5086 38.4312C64.5075 38.7406 64.5067 39.05 64.5066 39.3594C64.5066 39.3761 64.5066 39.3928 64.5066 39.4099C64.5065 39.4266 64.5065 39.4433 64.5065 39.4605C64.5064 39.7142 64.5052 39.9678 64.5035 40.2215C64.5014 40.5162 64.5002 40.8109 64.5002 41.1056C64.5001 41.2616 64.4997 41.4175 64.4983 41.5734C64.497 41.7201 64.4968 41.8668 64.4977 42.0135C64.4977 42.0673 64.4974 42.1211 64.4966 42.1749C64.4825 42.4557 64.4825 42.4557 64.582 42.7074C64.646 42.7597 64.7064 42.797 64.78 42.8341C64.8189 42.86 64.8577 42.8862 64.8961 42.9129C64.9344 42.9372 64.9729 42.9614 65.0115 42.9854C65.0323 42.9983 65.053 43.0112 65.0744 43.0246C65.8468 43.5011 66.7373 43.8194 67.6528 43.641C68.0408 43.5438 68.3301 43.366 68.6104 43.0862C68.6289 43.0684 68.6473 43.0505 68.6663 43.0321C69.1114 42.5708 69.2977 41.8498 69.3979 41.2359C69.4017 41.2128 69.4055 41.1897 69.4094 41.1658C69.4794 40.7019 69.5008 40.2368 69.499 39.7682C69.4987 39.6853 69.499 39.6024 69.4993 39.5195C69.4996 39.0314 69.4747 38.5425 69.3963 38.0602C69.392 38.0332 69.3877 38.0062 69.3833 37.9784C69.2524 37.1896 68.996 36.3301 68.3332 35.8237C67.2117 35.0317 65.7448 35.6826 64.8971 36.5589Z" fill="#EB681E"/>
<path d="M67.8481 12.3028C67.8658 12.3028 67.8836 12.3029 67.9018 12.303C68.7578 12.3072 69.4978 12.604 70.1108 13.2063C71.0385 14.1492 71.4072 15.5548 71.4127 16.8473C71.4129 16.8752 71.4131 16.9031 71.4133 16.9319C71.4137 17.0217 71.4139 17.1114 71.4139 17.2012C71.4139 17.2318 71.4139 17.2625 71.414 17.294C71.4136 17.7394 71.4053 18.1747 71.332 18.6149C71.3277 18.642 71.3234 18.6691 71.3189 18.697C71.1659 19.6328 70.8532 20.5299 70.2736 21.2879C70.2558 21.3114 70.2381 21.3348 70.2198 21.359C69.6297 22.1088 68.8194 22.5873 67.8702 22.708C66.8599 22.8162 65.8835 22.5739 65.0792 21.9452C64.8852 21.7862 64.7054 21.6167 64.528 21.4392C64.5197 23.6861 64.5114 25.9329 64.5028 28.2478C63.8957 28.2478 63.2887 28.2478 62.6632 28.2478C62.6631 28.0727 62.6629 27.8975 62.6628 27.717C62.6618 26.5596 62.6607 25.4021 62.6592 24.2447C62.6592 24.2249 62.6591 24.2052 62.6591 24.1848C62.6586 23.7552 62.658 23.3255 62.6574 22.8959C62.6571 22.6851 62.6569 22.4744 62.6566 22.2637C62.6566 22.2427 62.6565 22.2218 62.6565 22.2002C62.6556 21.5212 62.6549 20.8423 62.6544 20.1633C62.6539 19.4653 62.6531 18.7673 62.652 18.0692C62.6518 17.9705 62.6517 17.8718 62.6515 17.7731C62.6515 17.7536 62.6515 17.7342 62.6514 17.7142C62.651 17.4022 62.6508 17.0901 62.6506 16.7781C62.6505 16.464 62.6501 16.1498 62.6494 15.8357C62.6491 15.6657 62.6489 15.4956 62.649 15.3256C62.649 15.1697 62.6488 15.0137 62.6483 14.8578C62.6481 14.8016 62.6481 14.7455 62.6482 14.6894C62.6725 14.0208 62.6725 14.0208 62.4364 13.4202C62.3741 13.3673 62.3123 13.3439 62.2348 13.3194C62.2101 13.3109 62.1854 13.3025 62.1599 13.2938C61.8808 13.2091 61.5936 13.1814 61.3044 13.151C61.2029 13.1403 61.1014 13.1289 61 13.1176C61 12.9262 61 12.7348 61 12.5376C62.1559 12.5376 63.3118 12.5376 64.5028 12.5376C64.5111 13.1118 64.5194 13.686 64.528 14.2776C64.6444 14.1195 64.7608 13.9614 64.8808 13.7985C64.9638 13.7039 65.0465 13.6121 65.1328 13.5211C65.1634 13.4855 65.1939 13.4498 65.2242 13.4139C65.8711 12.6755 66.8858 12.2975 67.8481 12.3028ZM64.9611 14.4904C64.9416 14.5096 64.922 14.5288 64.9018 14.5486C64.8428 14.6082 64.7863 14.6697 64.7296 14.7315C64.7099 14.7511 64.6902 14.7706 64.6699 14.7907C64.4542 15.0318 64.4699 15.2692 64.4719 15.5784C64.4714 15.6331 64.4708 15.6879 64.4702 15.7427C64.4687 15.8908 64.4687 16.0388 64.469 16.1869C64.4692 16.3108 64.4687 16.4346 64.4681 16.5584C64.4669 16.8506 64.4669 17.1427 64.4677 17.4349C64.4684 17.7359 64.4672 18.037 64.4649 18.338C64.463 18.5969 64.4624 18.8558 64.4628 19.1148C64.463 19.2692 64.4627 19.4237 64.4612 19.5781C64.4599 19.7233 64.4601 19.8684 64.4616 20.0136C64.4619 20.0668 64.4616 20.12 64.4607 20.1731C64.4472 20.4373 64.4472 20.4373 64.5348 20.6781C64.6216 20.7677 64.7212 20.8258 64.8304 20.8845C64.8733 20.9121 64.916 20.94 64.9585 20.9682C64.998 20.992 65.0378 21.0156 65.0777 21.0389C65.0992 21.0516 65.1207 21.0643 65.1428 21.0774C65.6939 21.399 66.2995 21.6668 66.9472 21.6914C66.9721 21.6924 66.997 21.6934 67.0226 21.6945C67.6022 21.7063 68.1338 21.5371 68.56 21.1366C69.306 20.3654 69.4688 19.1397 69.4723 18.1123C69.4725 18.0792 69.4726 18.0461 69.4728 18.012C69.473 17.942 69.4732 17.8721 69.4733 17.8022C69.4734 17.7322 69.4737 17.6622 69.4743 17.5923C69.4837 16.427 69.414 14.953 68.5675 14.0545C68.1836 13.6656 67.7236 13.4917 67.1835 13.488C66.294 13.4867 65.5812 13.8781 64.9611 14.4904Z" fill="#006488"/>
<path d="M109.666 34.8111C110.307 35.3514 110.666 36.0792 110.77 36.9089C110.773 36.9351 110.773 36.9351 110.777 36.9618C110.803 37.2058 110.799 37.4504 110.8 37.6954C110.8 37.7468 110.8 37.7982 110.801 37.8495C110.801 37.9597 110.801 38.0699 110.802 38.1801C110.802 38.3548 110.803 38.5296 110.804 38.7043C110.805 39.0756 110.806 39.4469 110.808 39.8183C110.809 40.2184 110.811 40.6185 110.812 41.0186C110.813 41.1918 110.813 41.365 110.814 41.5381C110.814 41.6466 110.815 41.7551 110.815 41.8635C110.815 41.9133 110.816 41.963 110.816 42.0127C110.771 42.8515 110.771 42.8515 111.022 43.6166C111.259 43.849 111.683 43.8358 111.995 43.8593C112.053 43.8638 112.112 43.8685 112.17 43.8732C112.205 43.8761 112.241 43.8789 112.277 43.8815C112.351 43.8873 112.413 43.8957 112.483 43.9192C112.483 44.1106 112.483 44.302 112.483 44.4992C110.77 44.4992 109.057 44.4992 107.292 44.4992C107.292 44.3078 107.292 44.1164 107.292 43.9192C107.366 43.8824 107.443 43.8836 107.524 43.8776C107.561 43.8746 107.598 43.8716 107.636 43.8686C107.694 43.8639 107.753 43.8594 107.811 43.855C108.346 43.8251 108.346 43.8251 108.787 43.5551C108.983 43.1415 108.934 42.6148 108.935 42.1679C108.935 42.1147 108.935 42.0615 108.935 42.0082C108.936 41.8349 108.936 41.6615 108.936 41.4881C108.936 41.428 108.937 41.3679 108.937 41.3077C108.937 41.0251 108.937 40.7426 108.938 40.46C108.938 40.1356 108.939 39.8113 108.94 39.4869C108.94 39.2349 108.941 38.9829 108.941 38.731C108.941 38.581 108.941 38.4311 108.942 38.2812C108.942 38.1399 108.942 37.9987 108.942 37.8575C108.942 37.8061 108.942 37.7548 108.943 37.7035C108.946 37.1881 108.894 36.6761 108.678 36.2028C108.668 36.181 108.659 36.1592 108.649 36.1367C108.509 35.8598 108.273 35.6289 107.979 35.5266C107.286 35.3147 106.578 35.6367 105.973 35.9543C105.603 36.155 105.255 36.3971 104.923 36.6567C104.892 36.681 104.861 36.7052 104.83 36.7295C104.797 36.7546 104.765 36.7797 104.733 36.8048C104.718 36.8166 104.703 36.8283 104.687 36.8404C104.631 36.8848 104.576 36.9285 104.526 36.98C104.495 37.0097 104.495 37.0097 104.445 37.0097C104.447 37.7206 104.45 38.4315 104.453 39.1424C104.455 39.4726 104.456 39.8027 104.457 40.1328C104.458 40.4208 104.459 40.7087 104.461 40.9967C104.461 41.149 104.462 41.3012 104.463 41.4535C104.463 41.5973 104.464 41.741 104.464 41.8847C104.465 41.9371 104.465 41.9895 104.465 42.0418C104.466 42.3023 104.469 42.5623 104.482 42.8225C104.483 42.8443 104.484 42.866 104.485 42.8884C104.498 43.1563 104.52 43.4086 104.712 43.6103C105.034 43.8476 105.492 43.8517 105.875 43.8777C105.901 43.8795 105.927 43.8813 105.954 43.8831C105.989 43.8854 105.989 43.8854 106.026 43.8877C106.083 43.894 106.083 43.894 106.133 43.9192C106.133 44.1106 106.133 44.302 106.133 44.4992C104.42 44.4992 102.707 44.4992 100.942 44.4992C100.942 44.3078 100.942 44.1164 100.942 43.9192C101.005 43.8874 101.055 43.8875 101.126 43.8831C101.154 43.8813 101.181 43.8795 101.209 43.8777C101.238 43.8758 101.268 43.8739 101.298 43.8719C101.913 43.8408 101.913 43.8408 102.429 43.5409C102.618 43.2552 102.609 42.8813 102.608 42.5513C102.609 42.5106 102.609 42.5106 102.609 42.469C102.609 42.3788 102.609 42.2885 102.609 42.1982C102.609 42.1332 102.609 42.0682 102.609 42.0032C102.609 41.8454 102.609 41.6875 102.609 41.5297C102.609 41.4013 102.609 41.2728 102.609 41.1444C102.61 40.7796 102.61 40.4147 102.61 40.0499C102.61 40.0204 102.61 40.0204 102.61 39.9904C102.61 39.9609 102.61 39.9609 102.61 39.9308C102.61 39.6125 102.61 39.2941 102.61 38.9758C102.611 38.6481 102.611 38.3205 102.611 37.9929C102.611 37.8093 102.611 37.6256 102.611 37.442C102.611 37.2692 102.611 37.0964 102.611 36.9236C102.611 36.8604 102.611 36.7972 102.611 36.734C102.643 36.0291 102.643 36.0291 102.358 35.4156C102.002 35.1237 101.373 35.1525 100.942 35.1184C100.942 34.927 100.942 34.7357 100.942 34.5385C102.098 34.5385 103.254 34.5385 104.445 34.5385C104.453 35.0627 104.461 35.587 104.47 36.1271C104.557 36.0273 104.557 36.0273 104.646 35.9254C104.703 35.8685 104.76 35.813 104.82 35.7583C104.836 35.7434 104.852 35.7284 104.868 35.713C105.178 35.429 105.503 35.17 105.856 34.9419C105.871 34.9321 105.886 34.9223 105.902 34.9121C107.066 34.1622 108.504 33.9216 109.666 34.8111Z" fill="#EB681E"/>
<path d="M96.0914 34.2078C96.839 34.1893 97.5035 34.4976 98.041 35.0028C98.578 35.5292 98.9155 36.3343 98.9295 37.0868C98.9297 37.1235 98.9298 37.1602 98.9298 37.1969C98.9299 37.2173 98.93 37.2377 98.9301 37.2587C98.9303 37.3266 98.9304 37.3945 98.9305 37.4624C98.9307 37.5113 98.9308 37.5602 98.931 37.6091C98.9314 37.7143 98.9317 37.8196 98.9319 37.9248C98.9323 38.0923 98.9329 38.2597 98.9336 38.4271C98.9354 38.9032 98.9369 39.3794 98.9382 39.8555C98.9389 40.1186 98.9398 40.3816 98.9408 40.6447C98.9414 40.7833 98.9419 40.922 98.9421 41.0606C98.9431 41.5874 98.9469 42.1133 98.974 42.6394C98.9755 42.6688 98.9755 42.6688 98.9769 42.6989C98.989 43.2187 98.989 43.2187 99.2207 43.6641C99.5126 43.8515 99.8927 43.8501 100.229 43.8706C100.291 43.8745 100.354 43.8784 100.416 43.8825C100.444 43.8842 100.471 43.8858 100.499 43.8875C100.564 43.8942 100.564 43.8942 100.615 43.9194C100.615 44.1108 100.615 44.3022 100.615 44.4994C98.9014 44.4994 97.1884 44.4994 95.4233 44.4994C95.4233 44.308 95.4233 44.1166 95.4233 43.9194C95.4912 43.8855 95.5485 43.8875 95.6244 43.8834C95.6551 43.8816 95.6859 43.8798 95.7176 43.8779C95.7504 43.876 95.7833 43.8741 95.8171 43.8722C96.4156 43.8554 96.4156 43.8554 96.9212 43.5774C97.0217 43.356 97.0506 43.1176 97.0657 42.8771C97.0677 42.8461 97.0697 42.8152 97.0717 42.7832C97.0999 42.3106 97.0939 41.8364 97.0933 41.3631C97.0932 41.223 97.0933 41.0828 97.0934 40.9426C97.0935 40.7078 97.0934 40.473 97.0931 40.2381C97.0928 39.9678 97.0929 39.6974 97.0932 39.4271C97.0934 39.1933 97.0935 38.9594 97.0933 38.7256C97.0933 38.5866 97.0932 38.4477 97.0934 38.3088C97.0936 38.1784 97.0935 38.048 97.0932 37.9176C97.0931 37.8701 97.0931 37.8226 97.0932 37.7751C97.0947 37.0781 97.0298 36.3082 96.5346 35.773C96.2681 35.5189 95.9251 35.4561 95.571 35.4638C95.0773 35.4876 94.6184 35.6977 94.1885 35.9256C94.1708 35.9349 94.1531 35.9441 94.1348 35.9536C93.7035 36.1788 93.2925 36.4555 92.9235 36.7737C92.8781 36.8082 92.8781 36.8082 92.8158 36.8396C92.7201 36.8956 92.6429 36.9502 92.6116 37.0616C92.5875 37.227 92.5941 37.3945 92.5967 37.5612C92.5967 37.618 92.5966 37.6747 92.5964 37.7315C92.5961 37.8855 92.5974 38.0394 92.5989 38.1934C92.6003 38.3549 92.6003 38.5163 92.6005 38.6778C92.6009 38.9491 92.6023 39.2204 92.6044 39.4918C92.6065 39.7702 92.6079 40.0486 92.6085 40.327C92.6085 40.3441 92.6086 40.3612 92.6086 40.3789C92.6088 40.4477 92.6089 40.5165 92.6091 40.5854C92.6097 40.8677 92.6108 41.1501 92.612 41.4324C92.6122 41.4965 92.6125 41.5605 92.6127 41.6246C92.6135 41.8075 92.6144 41.9904 92.6158 42.1734C92.6162 42.2286 92.6165 42.2838 92.6167 42.339C92.5942 42.9863 92.5942 42.9863 92.819 43.5686C93.1491 43.8887 93.7337 43.8702 94.1662 43.8889C94.2389 43.8942 94.2389 43.8942 94.2893 43.9194C94.2893 44.1108 94.2893 44.3022 94.2893 44.4994C92.5762 44.4994 90.8632 44.4994 89.0981 44.4994C89.0981 44.308 89.0981 44.1166 89.0981 43.9194C89.1617 43.8876 89.2116 43.8877 89.2826 43.8834C89.3236 43.8807 89.3236 43.8807 89.3655 43.8779C89.4093 43.8751 89.4093 43.8751 89.4541 43.8722C90.0716 43.8465 90.0716 43.8465 90.5849 43.5443C90.7089 43.3323 90.7407 43.0624 90.7513 42.8213C90.7523 42.8008 90.7532 42.7803 90.7543 42.7592C90.7658 42.4906 90.7649 42.2218 90.7646 41.953C90.7646 41.8939 90.7647 41.8347 90.7647 41.7755C90.7649 41.6163 90.7648 41.457 90.7647 41.2977C90.7647 41.1472 90.7647 40.9967 90.7648 40.8462C90.7648 40.53 90.7647 40.2137 90.7646 39.8975C90.7645 39.6273 90.7645 39.357 90.7646 39.0867C90.7648 38.7715 90.7648 38.4562 90.7647 38.141C90.7647 37.9746 90.7647 37.8083 90.7648 37.6419C90.7649 37.4854 90.7648 37.329 90.7647 37.1725C90.7646 37.1154 90.7646 37.0584 90.7647 37.0013C90.7649 36.739 90.7636 36.4771 90.7504 36.2151C90.7495 36.1962 90.7485 36.1772 90.7476 36.1577C90.7308 35.8663 90.6879 35.5938 90.4698 35.3831C90.1198 35.1224 89.5164 35.1536 89.0981 35.1187C89.0981 34.9273 89.0981 34.7359 89.0981 34.5387C90.2541 34.5387 91.41 34.5387 92.6009 34.5387C92.6093 35.0546 92.6176 35.5706 92.6261 36.1022C92.6927 36.0356 92.7592 35.969 92.8277 35.9004C92.8771 35.8566 92.9264 35.8129 92.9765 35.7699C93.0125 35.7385 93.048 35.7065 93.083 35.674C93.8974 34.9169 94.9569 34.2626 96.0914 34.2078Z" fill="#EB681E"/>
<path d="M85.7211 34.6901C85.7463 34.703 85.7715 34.7159 85.7975 34.7291C86.0024 34.8401 86.1623 34.9805 86.3259 35.144C86.3443 35.1622 86.3627 35.1803 86.3817 35.199C86.8549 35.6959 87.0355 36.4391 87.0352 37.1094C87.0352 37.1309 87.0353 37.1524 87.0354 37.1746C87.0357 37.246 87.0358 37.3175 87.0359 37.389C87.036 37.4405 87.0362 37.492 87.0364 37.5435C87.0368 37.6542 87.0371 37.7649 87.0373 37.8757C87.0377 38.0512 87.0383 38.2268 87.0389 38.4024C87.0407 38.9017 87.0422 39.401 87.0435 39.9002C87.0442 40.1761 87.0451 40.4521 87.0462 40.728C87.0469 40.9019 87.0473 41.0759 87.0476 41.2499C87.0479 41.359 87.0483 41.4681 87.0488 41.5772C87.049 41.6271 87.0491 41.6771 87.0491 41.727C87.0283 42.7402 87.0283 42.7402 87.4095 43.6422C87.5997 43.8149 87.773 43.8526 88.0266 43.849C88.167 43.8409 88.3045 43.8188 88.4427 43.7935C88.5006 44.268 88.5006 44.268 88.4931 44.4995C87.7794 44.7526 86.9431 44.8646 86.2241 44.5611C85.7965 44.3528 85.5628 44.0559 85.4077 43.6106C85.3856 43.5456 85.3642 43.4805 85.3431 43.4152C85.3115 43.4431 85.3115 43.4431 85.2792 43.4716C84.9679 43.7442 84.6441 43.9904 84.2847 44.1969C84.2609 44.2107 84.2609 44.2107 84.2365 44.2247C83.3947 44.7046 82.4651 44.856 81.522 44.6107C81.2858 44.5443 81.0711 44.4427 80.8575 44.323C80.8329 44.3093 80.8084 44.2956 80.7831 44.2815C80.1618 43.9088 79.7518 43.3104 79.561 42.6169C79.5048 42.378 79.4876 42.1407 79.4888 41.8959C79.489 41.8662 79.4891 41.8364 79.4893 41.8058C79.4982 41.1604 79.6944 40.5253 80.1267 40.0361C80.1449 40.0149 80.1631 39.9937 80.1818 39.9718C81.035 38.995 82.3466 38.7383 83.5791 38.624C83.6109 38.6209 83.6427 38.6179 83.6755 38.6147C83.8734 38.5983 84.0721 38.5923 84.2705 38.5846C84.298 38.5835 84.3254 38.5823 84.3537 38.5812C84.6414 38.5709 84.9292 38.5725 85.2171 38.5735C85.2147 38.3785 85.212 38.1835 85.2091 37.9885C85.2082 37.9224 85.2073 37.8563 85.2065 37.7902C85.2029 36.5463 85.2029 36.5463 84.6375 35.4718C84.2851 35.1295 83.8264 35.0343 83.3502 35.0395C82.7271 35.0625 82.22 35.3111 81.7647 35.724C81.7427 35.7439 81.7207 35.7637 81.698 35.7842C81.6568 35.8215 81.6156 35.8588 81.5744 35.8961C81.4645 35.9938 81.3504 36.0861 81.2355 36.1779C81.2225 36.1885 81.2096 36.1991 81.1962 36.21C80.902 36.4497 80.5977 36.65 80.204 36.6411C80.0516 36.6228 79.9297 36.5679 79.8273 36.4522C79.6821 36.2445 79.6508 36.0497 79.6731 35.7997C79.7253 35.5359 79.8863 35.3482 80.1018 35.1953C80.2415 35.1048 80.3906 35.0456 80.5457 34.9864C80.5762 34.9746 80.6068 34.9628 80.6383 34.9506C81.4042 34.6578 82.1845 34.4395 82.9995 34.3371C83.0203 34.3344 83.0411 34.3318 83.0626 34.3291C83.9399 34.2338 84.9285 34.2679 85.7211 34.6901ZM82.0019 40.0986C81.5385 40.5983 81.4123 41.1917 81.4328 41.8523C81.4607 42.3405 81.708 42.819 82.0577 43.1552C82.5175 43.5478 83.0629 43.6586 83.6547 43.6169C84.1642 43.5475 84.6365 43.2802 85.0659 43.0117C85.0916 43.0017 85.1173 42.9917 85.1438 42.9813C85.2055 42.9393 85.216 42.9165 85.2308 42.8421C85.2358 42.7468 85.2358 42.6521 85.2343 42.5568C85.2342 42.52 85.2343 42.4832 85.2343 42.4465C85.2344 42.3466 85.2335 42.2468 85.2324 42.147C85.2315 42.0427 85.2314 41.9384 85.2312 41.834C85.2308 41.6365 85.2295 41.4389 85.228 41.2414C85.2263 41.0165 85.2255 40.7916 85.2247 40.5667C85.2231 40.104 85.2205 39.6414 85.2171 39.1787C85.0977 39.178 84.9782 39.1775 84.8588 39.1771C84.8183 39.177 84.7778 39.1767 84.7374 39.1765C83.7512 39.1703 82.7144 39.3615 82.0019 40.0986Z" fill="#EB681E"/>
<path d="M78.3283 12.3028C78.3516 12.3029 78.3748 12.3029 78.3988 12.303C78.7525 12.3043 79.099 12.3145 79.4466 12.3864C79.471 12.3914 79.4954 12.3964 79.5206 12.4015C80.3577 12.5796 81.077 12.9474 81.6894 13.5463C81.707 13.5624 81.7246 13.5785 81.7428 13.5951C82.7079 14.4966 83.047 15.9368 83.0977 17.2054C83.1353 18.5424 82.9092 19.9555 82.0674 21.0358C82.0499 21.0589 82.0325 21.0819 82.0145 21.1056C81.6669 21.5497 81.2479 21.8978 80.757 22.1706C80.7413 22.1793 80.7256 22.1881 80.7094 22.1972C79.5218 22.8525 77.9802 22.8765 76.6998 22.5063C76.2839 22.3797 75.8969 22.1924 75.5406 21.9436C75.5187 21.9283 75.5187 21.9283 75.4964 21.9128C74.4194 21.145 73.8727 19.9629 73.6506 18.6906C73.6281 18.5482 73.6128 18.4056 73.6002 18.2619C73.5974 18.2343 73.5946 18.2067 73.5917 18.1782C73.4677 16.7326 73.6957 15.1449 74.6082 13.975C74.6248 13.9532 74.6415 13.9314 74.6587 13.9089C75.2733 13.1285 76.1234 12.6352 77.0872 12.4195C77.1098 12.4143 77.1324 12.4092 77.1556 12.404C77.5454 12.3208 77.9311 12.3012 78.3283 12.3028ZM76.7118 13.6549C75.797 14.7059 75.5088 16.1466 75.5106 17.5038C75.5106 17.5243 75.5107 17.5448 75.5107 17.5659C75.5135 18.987 75.8367 20.4605 76.8447 21.5181C77.2689 21.9309 77.7966 22.1448 78.3882 22.1454C78.9243 22.1164 79.3931 21.9201 79.7742 21.5401C79.7949 21.5196 79.8155 21.499 79.8369 21.4778C79.8578 21.4568 79.8786 21.4357 79.9002 21.4141C79.9192 21.3949 79.9382 21.3758 79.9578 21.3561C80.2481 21.0511 80.4592 20.6873 80.631 20.3045C80.6435 20.2767 80.6435 20.2767 80.6562 20.2484C81.3467 18.6857 81.365 16.6241 80.7585 15.0312C80.5693 14.5557 80.334 14.1139 80.001 13.7229C79.9843 13.7025 79.9676 13.6821 79.9504 13.6611C79.5926 13.2404 79.1162 12.9639 78.5646 12.8907C77.8269 12.8427 77.2041 13.1096 76.7118 13.6549Z" fill="#006488"/>
<path d="M120.064 35.0512C120.126 35.1058 120.186 35.1618 120.245 35.2188C120.262 35.2339 120.279 35.249 120.296 35.2645C121.099 36.0178 121.355 37.2185 121.434 38.2717C121.438 38.3132 121.438 38.3132 121.441 38.3556C121.458 38.606 121.455 38.8495 121.455 39.1022C119.451 39.1022 117.447 39.1022 115.382 39.1022C115.398 39.6481 115.398 39.6481 115.438 40.1913C115.442 40.2224 115.445 40.2535 115.448 40.2856C115.547 41.1732 115.773 42.1141 116.365 42.8091C116.389 42.8393 116.389 42.8393 116.414 42.87C116.857 43.3906 117.486 43.6603 118.154 43.7422C118.226 43.746 118.298 43.7469 118.37 43.7473C118.391 43.7475 118.411 43.7476 118.432 43.7478C118.499 43.7483 118.565 43.7484 118.631 43.7485C118.654 43.7485 118.676 43.7485 118.7 43.7485C119.06 43.7481 119.411 43.7319 119.767 43.6665C119.79 43.6623 119.814 43.6581 119.838 43.6538C120.312 43.5676 120.779 43.4307 121.204 43.2007C121.292 43.1531 121.354 43.132 121.455 43.1117C121.455 43.4196 121.455 43.7275 121.455 44.0448C120.769 44.3194 120.076 44.5306 119.346 44.6453C119.321 44.6492 119.321 44.6492 119.295 44.6533C117.945 44.8632 116.508 44.6684 115.38 43.8561C114.99 43.5646 114.623 43.2127 114.349 42.8091C114.337 42.7919 114.325 42.7747 114.313 42.757C113.86 42.0866 113.579 41.3362 113.441 40.5396C113.437 40.5166 113.433 40.4936 113.429 40.4699C113.185 39.0315 113.405 37.3445 114.26 36.1376C114.281 36.1087 114.302 36.0798 114.323 36.051C114.334 36.0366 114.344 36.0222 114.355 36.0074C115.041 35.062 116.072 34.5075 117.212 34.3201C118.221 34.1662 119.276 34.3889 120.064 35.0512ZM116.209 35.6036C115.728 36.1573 115.523 37.0036 115.457 37.7153C115.455 37.7413 115.452 37.7673 115.449 37.7941C115.426 38.0385 115.432 38.2742 115.432 38.5222C116.779 38.5222 118.127 38.5222 119.515 38.5222C119.554 36.8162 119.554 36.8162 118.819 35.3008C118.519 35.0171 118.137 34.8692 117.725 34.862C117.115 34.8847 116.623 35.1732 116.209 35.6036Z" fill="#EB681E"/>
<path d="M105.15 12.5645C106.049 12.5645 106.947 12.5645 107.872 12.5645C108.442 13.9609 108.442 13.9609 108.611 14.383C108.844 14.9614 109.079 15.5389 109.315 16.1161C109.39 16.2989 109.464 16.4817 109.539 16.6645C109.814 17.3403 110.09 18.0157 110.368 18.6908C110.419 18.8168 110.471 18.9428 110.523 19.0689C110.531 19.0891 110.539 19.1094 110.548 19.1303C110.715 19.5386 110.882 19.9474 111.047 20.3565C111.138 20.1621 111.221 19.9655 111.3 19.7662C111.318 19.7196 111.337 19.673 111.355 19.6263C111.375 19.5763 111.395 19.5262 111.415 19.4761C111.48 19.3116 111.546 19.1472 111.612 18.9827C111.627 18.9437 111.643 18.9046 111.658 18.8655C111.84 18.4092 112.024 17.9535 112.207 17.4978C112.233 17.4326 112.26 17.3674 112.286 17.3022C112.357 17.1257 112.428 16.9492 112.499 16.7726C112.624 16.4619 112.749 16.1511 112.874 15.8403C112.909 15.7523 112.945 15.6642 112.98 15.5762C112.989 15.5545 112.998 15.5328 113.007 15.5105C113.143 15.1708 113.28 14.8312 113.416 14.4916C113.458 14.3869 113.501 14.2822 113.543 14.1775C113.633 13.9529 113.723 13.7283 113.814 13.5037C113.851 13.4099 113.889 13.3161 113.927 13.2223C113.962 13.1363 113.996 13.0502 114.031 12.9642C114.049 12.9179 114.068 12.8717 114.087 12.8254C114.103 12.7846 114.103 12.7846 114.12 12.7429C114.129 12.7192 114.139 12.6956 114.149 12.6712C114.172 12.6149 114.172 12.6149 114.197 12.5645C114.455 12.5645 114.713 12.5645 114.978 12.5645C114.95 12.7347 114.95 12.7347 114.914 12.8228C114.906 12.8428 114.898 12.8628 114.89 12.8834C114.881 12.9049 114.873 12.9264 114.864 12.9486C114.854 12.9717 114.845 12.9949 114.835 13.0187C114.804 13.0958 114.773 13.1728 114.742 13.2498C114.72 13.3046 114.698 13.3593 114.676 13.4141C114.629 13.5311 114.582 13.648 114.534 13.765C114.46 13.9494 114.385 14.1339 114.311 14.3184C114.286 14.3806 114.261 14.4428 114.236 14.5049C114.224 14.5357 114.211 14.5665 114.198 14.5982C114.161 14.6919 114.123 14.7856 114.085 14.8793C113.887 15.371 113.69 15.8632 113.493 16.3557C113.412 16.5595 113.33 16.7632 113.249 16.967C113.241 16.9867 113.233 17.0063 113.225 17.0266C113.034 17.504 112.842 17.981 112.65 18.458C112.613 18.5513 112.575 18.6446 112.537 18.7379C112.53 18.757 112.522 18.7762 112.514 18.7959C112.277 19.3853 112.04 19.9751 111.803 20.5648C111.768 20.653 111.732 20.7412 111.697 20.8293C111.629 20.9971 111.562 21.1648 111.495 21.3326C111.478 21.3727 111.478 21.3727 111.462 21.4136C111.356 21.6782 111.25 21.9429 111.144 22.2077C111.136 22.228 111.128 22.2482 111.119 22.2691C111.083 22.3608 111.046 22.4524 111.01 22.5441C110.73 23.2462 110.438 23.9444 110.091 24.6166C110.072 24.654 110.053 24.6916 110.034 24.7291C109.724 25.3417 109.359 25.9176 108.905 26.4338C108.891 26.4512 108.876 26.4685 108.861 26.4864C108.613 26.7809 108.333 27.0376 108.023 27.266C107.992 27.2895 107.992 27.2895 107.96 27.3135C107.364 27.7472 106.681 28.0213 105.965 28.1801C105.939 28.186 105.912 28.1919 105.886 28.198C105.328 28.315 104.77 28.3357 104.202 28.3298C104.137 28.3294 104.072 28.3291 104.007 28.3288C103.851 28.328 103.694 28.3267 103.538 28.3251C103.538 28.167 103.538 28.0089 103.538 27.846C103.588 27.845 103.638 27.8441 103.689 27.8431C105.331 27.8061 106.883 27.4282 108.084 26.2462C108.12 26.2107 108.157 26.1759 108.194 26.1411C109.095 25.2749 109.6 24.0527 109.979 22.8889C109.988 22.8627 109.988 22.8627 109.997 22.8361C110.011 22.7914 110.025 22.7465 110.039 22.7017C110.048 22.6777 110.048 22.6777 110.056 22.6531C110.067 22.5846 110.051 22.5491 110.023 22.4856C110.013 22.4626 110.004 22.4396 109.994 22.4159C109.983 22.3909 109.972 22.3659 109.96 22.3401C109.949 22.3136 109.938 22.2872 109.926 22.2599C109.888 22.1722 109.85 22.0847 109.812 21.9972C109.786 21.936 109.76 21.8748 109.733 21.8136C109.665 21.6538 109.596 21.4942 109.526 21.3346C109.486 21.2415 109.446 21.1484 109.405 21.0553C109.306 20.8271 109.208 20.5989 109.109 20.3709C108.938 19.9801 108.77 19.5885 108.603 19.1965C108.289 18.463 107.975 17.7298 107.657 16.9981C107.512 16.6632 107.367 16.3281 107.223 15.9924C107.208 15.9581 107.194 15.9238 107.179 15.8895C107.168 15.864 107.168 15.864 107.157 15.8379C106.782 14.9545 106.782 14.9545 106.391 14.0775C106.375 14.0408 106.375 14.0408 106.358 14.0033C106.277 13.8283 106.183 13.6623 106.083 13.4975C106.069 13.4742 106.069 13.4742 106.054 13.4504C105.939 13.2872 105.714 13.2021 105.525 13.1618C105.401 13.1442 105.276 13.1317 105.15 13.1192C105.15 12.9362 105.15 12.7531 105.15 12.5645Z" fill="#006488"/>
<path d="M73.0454 30C74.2013 30 75.3573 30 76.5482 30C76.5482 34.8931 76.5482 39.7862 76.5482 44.8276C75.9411 44.8276 75.3341 44.8276 74.7086 44.8276C74.7084 44.6636 74.7082 44.4996 74.708 44.3306C74.7066 43.247 74.7052 42.1634 74.7035 41.0799C74.7035 41.0614 74.7035 41.0429 74.7035 41.0238C74.7028 40.6217 74.7022 40.2196 74.7016 39.8174C74.7012 39.6202 74.7009 39.423 74.7006 39.2258C74.7006 39.2062 74.7006 39.1866 74.7005 39.1663C74.6995 38.5307 74.6987 37.8951 74.6979 37.2595C74.6971 36.6061 74.6962 35.9527 74.695 35.2993C74.6949 35.2069 74.6947 35.1145 74.6945 35.0221C74.6945 35.004 74.6945 34.9858 74.6945 34.9671C74.694 34.6749 74.6936 34.3827 74.6934 34.0905C74.6931 33.7965 74.6926 33.5025 74.692 33.2085C74.6917 33.0493 74.6914 32.8901 74.6914 32.7309C74.6913 32.585 74.6911 32.4391 74.6906 32.2932C74.6905 32.2406 74.6905 32.188 74.6905 32.1353C74.7122 31.472 74.7122 31.472 74.4692 30.8826C74.0863 30.6265 73.4837 30.6396 73.0454 30.6052C73.0454 30.4055 73.0454 30.2058 73.0454 30Z" fill="#EB681E"/>
<path d="M84.3101 8C85.466 8 86.6219 8 87.8129 8C87.8129 12.8931 87.8129 17.7862 87.8129 22.8276C87.2141 22.8276 86.6154 22.8276 85.9985 22.8276C85.9983 22.666 85.9981 22.5045 85.9978 22.338C85.9965 21.2702 85.9951 20.2024 85.9934 19.1346C85.9934 19.1164 85.9933 19.0981 85.9933 19.0793C85.9927 18.6829 85.992 18.2865 85.9914 17.8901C85.9911 17.6956 85.9908 17.5012 85.9905 17.3068C85.9904 17.2874 85.9904 17.2681 85.9904 17.2481C85.9894 16.6218 85.9885 15.9954 85.9878 15.3691C85.987 14.7251 85.986 14.081 85.9849 13.437C85.9847 13.3459 85.9846 13.2548 85.9844 13.1637C85.9844 13.1458 85.9843 13.1279 85.9843 13.1094C85.9838 12.8216 85.9835 12.5337 85.9832 12.2459C85.9829 11.956 85.9825 11.6662 85.9818 11.3764C85.9815 11.2195 85.9813 11.0627 85.9812 10.9058C85.9812 10.7619 85.9809 10.618 85.9805 10.4741C85.9803 10.4223 85.9803 10.3706 85.9804 10.3188C85.9847 9.61873 85.9847 9.61873 85.811 8.94721C85.5401 8.67614 85.0419 8.66975 84.6786 8.63831C84.6426 8.63503 84.6066 8.63173 84.5705 8.62841C84.4837 8.62041 84.3969 8.61282 84.3101 8.60521C84.3101 8.40549 84.3101 8.20577 84.3101 8Z" fill="#006488"/>
<path d="M102.479 12.3865C102.511 12.3915 102.544 12.3965 102.577 12.4017C103.131 12.4898 103.67 12.6143 104.218 12.7395C104.218 13.5301 104.218 14.3206 104.218 15.1352C103.835 15.1352 103.453 15.1352 103.059 15.1352C103.05 14.9687 103.042 14.8023 103.033 14.6308C102.969 14.1025 102.838 13.6011 102.404 13.2544C101.951 12.9278 101.358 12.8986 100.824 12.9812C100.442 13.0505 100.075 13.216 99.7827 13.4708C99.7629 13.4871 99.7431 13.5033 99.7226 13.52C98.9002 14.2178 98.5742 15.4088 98.4808 16.4427C98.4779 16.4776 98.4751 16.5124 98.4723 16.5473C98.4695 16.5797 98.4667 16.6122 98.4638 16.6456C98.3626 18.0397 98.5203 19.6214 99.4623 20.7252C99.5176 20.7878 99.5742 20.849 99.6315 20.9099C99.655 20.9358 99.655 20.9358 99.679 20.9624C100.147 21.4598 100.885 21.7456 101.557 21.7704C101.662 21.7725 101.768 21.7735 101.873 21.7735C101.892 21.7736 101.911 21.7736 101.93 21.7736C102.648 21.7726 103.335 21.6506 104.01 21.4089C104.079 21.3846 104.149 21.3617 104.218 21.3385C104.218 21.6132 104.218 21.8878 104.218 22.1707C102.66 22.7685 100.878 22.996 99.3039 22.322C98.132 21.7926 97.2841 20.7704 96.8313 19.5813C96.5857 18.9064 96.5008 18.1825 96.502 17.4677C96.502 17.4502 96.502 17.4327 96.502 17.4146C96.5053 16.0045 96.8998 14.6517 97.8927 13.6221C97.9141 13.5992 97.9354 13.5762 97.9575 13.5525C98.6342 12.844 99.5804 12.462 100.539 12.3361C100.556 12.3337 100.573 12.3312 100.591 12.3287C101.207 12.2544 101.869 12.2906 102.479 12.3865Z" fill="#006488"/>
<path d="M129.412 34.3018C129.44 34.3015 129.468 34.3011 129.497 34.3008C129.707 34.302 129.86 34.3377 130.073 34.387C130.073 35.294 130.073 36.2011 130.073 37.1356C129.732 37.1356 129.392 37.1356 129.04 37.1356C128.995 36.7384 128.995 36.7384 128.981 36.6151C128.948 36.252 128.948 36.252 128.812 35.922C128.563 35.7632 128.233 35.8198 127.958 35.8772C127.388 36.0102 126.908 36.3838 126.554 36.8409C126.522 36.8806 126.488 36.9184 126.454 36.956C126.206 37.2469 126.233 37.581 126.237 37.9452C126.238 38.0377 126.237 38.1303 126.236 38.2229C126.236 38.3828 126.236 38.5428 126.237 38.7027C126.238 38.934 126.238 39.1652 126.238 39.3965C126.237 39.7718 126.237 40.1471 126.238 40.5224C126.24 40.8867 126.24 41.2511 126.24 41.6154C126.24 41.6379 126.24 41.6604 126.24 41.6836C126.24 41.7965 126.24 41.9093 126.24 42.0222C126.239 42.9571 126.241 43.8919 126.243 44.8268C125.644 44.8268 125.046 44.8268 124.429 44.8268C124.428 44.579 124.427 44.3312 124.427 44.0759C124.425 43.2815 124.423 42.4871 124.42 41.6927C124.42 41.5692 124.42 41.4456 124.419 41.3221C124.419 41.2975 124.419 41.2729 124.419 41.2475C124.418 40.8502 124.417 40.4528 124.416 40.0554C124.415 39.6472 124.414 39.2389 124.413 38.8307C124.412 38.5791 124.411 38.3275 124.411 38.076C124.41 37.9031 124.41 37.7301 124.409 37.5572C124.409 37.4577 124.409 37.3582 124.408 37.2587C124.408 36.7552 124.408 36.7552 124.393 36.2519C124.391 36.2212 124.391 36.2212 124.39 36.1899C124.376 35.9308 124.347 35.6256 124.162 35.4291C123.87 35.1807 123.441 35.1863 123.078 35.1517C122.965 35.1409 122.853 35.1295 122.74 35.1182C122.74 34.9269 122.74 34.7355 122.74 34.5383C123.896 34.5383 125.052 34.5383 126.243 34.5383C126.251 35.1208 126.26 35.7033 126.268 36.3034C126.351 36.1786 126.435 36.0538 126.52 35.9252C127.132 35.1135 127.905 34.4768 128.94 34.324C129.097 34.3054 129.254 34.3031 129.412 34.3018Z" fill="#EB681E"/>
<path d="M90.1816 12.5391C91.3459 12.5391 92.5101 12.5391 93.7096 12.5391C93.7096 15.9343 93.7096 19.3295 93.7096 22.8276C93.1026 22.8276 92.4955 22.8276 91.87 22.8276C91.8693 22.4427 91.8693 22.4427 91.8685 22.0501C91.8669 21.2279 91.865 20.4058 91.863 19.5837C91.8627 19.4559 91.8624 19.328 91.862 19.2002C91.862 19.1748 91.8619 19.1493 91.8619 19.1231C91.8609 18.7117 91.86 18.3004 91.8593 17.889C91.8585 17.4665 91.8575 17.0441 91.8564 16.6216C91.8557 16.3612 91.8551 16.1007 91.8547 15.8403C91.8545 15.6614 91.854 15.4825 91.8534 15.3036C91.8531 15.2006 91.8528 15.0976 91.8528 14.9946C91.9016 14.1703 91.9016 14.1703 91.6376 13.4294C91.2855 13.1365 90.6114 13.1566 90.1816 13.1191C90.1816 12.9277 90.1816 12.7363 90.1816 12.5391Z" fill="#006488"/>
<path d="M92.386 7C92.5526 7.13702 92.7033 7.2891 92.8553 7.44189C92.8832 7.46995 92.9112 7.498 92.9392 7.52605C93.0124 7.59937 93.0855 7.67276 93.1586 7.74617C93.2334 7.82128 93.3083 7.89631 93.3831 7.97135C93.5296 8.11821 93.676 8.26516 93.8224 8.41215C93.687 8.57679 93.5372 8.726 93.3863 8.87621C93.3588 8.90365 93.3314 8.9311 93.3039 8.95856C93.2321 9.03029 93.1603 9.10195 93.0884 9.17359C93.0149 9.24691 92.9414 9.32031 92.8679 9.3937C92.7242 9.5373 92.5803 9.68083 92.4364 9.82431C92.2698 9.68729 92.1191 9.53521 91.9671 9.38242C91.9392 9.35436 91.9112 9.32631 91.8832 9.29826C91.81 9.22494 91.7369 9.15155 91.6638 9.07813C91.589 9.00303 91.5141 8.928 91.4393 8.85296C91.2928 8.70609 91.1464 8.55915 91 8.41215C91.1354 8.24752 91.2852 8.09831 91.4361 7.9481C91.4636 7.92066 91.491 7.8932 91.5185 7.86575C91.5903 7.79402 91.6621 7.72236 91.734 7.65072C91.8075 7.5774 91.881 7.504 91.9545 7.43061C92.0982 7.287 92.2421 7.14348 92.386 7Z" fill="#006488"/>
</svg>
