<svg width="80" height="80" viewBox="0 0 80 80" fill="none" xmlns="http://www.w3.org/2000/svg">
<path d="M64.8055 77.043V66.7891C64.8055 56.2235 56.2403 47.6582 45.6745 47.6582H34.3223C23.7567 47.6582 15.1914 56.2234 15.1914 66.7891V77.043L39.9978 78.4493L64.8055 77.043Z" fill="#9EC8FC"/>
<path d="M46.3675 47.6584C46.3675 47.6584 46.6596 55.258 39.9972 55.258C33.3349 55.258 33.6269 47.6584 33.6269 47.6584H46.3675Z" fill="#E2AE84"/>
<path d="M60.5055 29.8841C60.6767 26.9386 60.6578 24.2602 60.4725 21.8264H19.522C19.3366 24.2603 19.3178 26.9386 19.4891 29.8841H60.5055Z" fill="#26457D"/>
<path d="M18.9727 31.058C18.9727 33.0216 20.2728 36.336 22.6184 36.336L24.5108 34.7243L26.8747 32.9171L24.47 27.3866C24.2922 27.3683 24.1135 27.3591 23.9347 27.3591C21.5891 27.3591 19.6091 28.9193 18.9727 31.058Z" fill="#E2AE84"/>
<path d="M23.9352 34.757C21.5897 34.757 19.6095 33.1969 18.9733 31.0581C18.8304 31.5379 18.7578 32.0359 18.7578 32.5365C18.7578 35.3959 21.0758 37.7139 23.9352 37.7139C24.2969 37.7139 24.6498 37.6765 24.9906 37.6059L26.1077 36.1267L24.5112 34.7242C24.322 34.7453 24.13 34.757 23.9352 34.757Z" fill="#D7A379"/>
<path d="M61.0231 31.058C61.0231 33.0216 59.723 36.336 57.3773 36.336L55.485 34.7243L53.1211 32.9171L55.5258 27.3866C55.7036 27.3683 55.8823 27.3591 56.0611 27.3591C58.4066 27.3591 60.3867 28.9193 61.0231 31.058Z" fill="#E2AE84"/>
<path d="M56.0592 34.757C58.4047 34.757 60.3848 33.1969 61.0211 31.0581C61.164 31.5379 61.2366 32.0359 61.2366 32.5365C61.2366 35.3959 58.9186 37.7139 56.0592 37.7139C55.6975 37.7139 55.3445 37.6765 55.0038 37.6059L53.8867 36.1267L55.4831 34.7242C55.6723 34.7453 55.8644 34.757 56.0592 34.757Z" fill="#D7A379"/>
<path d="M50.4202 21.8264L39.9997 20.4202L29.5792 21.8264C26.6217 26.6959 24.4734 27.3866 24.4727 27.3866V32.5364C24.4727 41.1117 31.4244 47.7303 39.9997 47.7303C48.575 47.7303 55.5267 41.1119 55.5267 32.5364V27.3866C55.5267 27.3866 53.3778 26.6963 50.4202 21.8264Z" fill="#F0C69E"/>
<path d="M39.9997 46.1799C31.4244 46.1799 24.4727 39.2281 24.4727 30.6528V33.6097C24.4727 42.185 31.4244 49.1367 39.9997 49.1367C48.575 49.1367 55.5267 42.1852 55.5267 33.6097V30.6528C55.5267 39.2281 48.575 46.1799 39.9997 46.1799Z" fill="#E6BA94"/>
<path d="M16.0128 80.0001H23.7603L24.9923 78.5938L26.2244 80.0001H53.7727L55.0047 78.5938L56.2367 80.0001H63.9842C64.2021 80.0001 64.411 79.9135 64.565 79.7595C64.7191 79.6055 64.8056 79.3965 64.8056 79.1787V77.0432H15.1914V79.1787C15.1914 79.3965 15.2779 79.6055 15.432 79.7595C15.586 79.9135 15.795 80.0001 16.0128 80.0001Z" fill="#80B6FC"/>
<path d="M26.2258 69.1549V77.0432L24.9938 78.4494L23.7617 77.0432V69.1549C23.7615 68.993 23.7932 68.8327 23.855 68.6831C23.9169 68.5336 24.0076 68.3977 24.1221 68.2832C24.2365 68.1688 24.3724 68.078 24.522 68.0162C24.6716 67.9543 24.8319 67.9226 24.9938 67.9229C25.1556 67.9228 25.3158 67.9546 25.4653 68.0165C25.6148 68.0784 25.7507 68.1691 25.8651 68.2835C25.9795 68.3979 26.0703 68.5338 26.1322 68.6833C26.1941 68.8328 26.2259 68.9931 26.2258 69.1549ZM56.238 69.1549V77.0432L55.0059 78.4494L53.7739 77.0432V69.1549C53.7738 68.9931 53.8056 68.8328 53.8675 68.6833C53.9294 68.5338 54.0202 68.3979 54.1346 68.2835C54.249 68.1691 54.3848 68.0784 54.5344 68.0165C54.6839 67.9546 54.8441 67.9228 55.0059 67.9229C55.1678 67.9226 55.3281 67.9543 55.4777 68.0162C55.6273 68.078 55.7632 68.1688 55.8776 68.2832C55.9921 68.3977 56.0828 68.5336 56.1446 68.6831C56.2065 68.8327 56.2382 68.993 56.238 69.1549Z" fill="#6EAAF3"/>
<path d="M23.7617 77.0432H26.2258V80.0001H23.7617V77.0432ZM53.7739 77.0432H56.238V80.0001H53.7739V77.0432Z" fill="#5D9EE6"/>
<path d="M61.2016 18.8695C59.3386 4.33891 49.4428 0 39.9992 0C30.5556 0 20.6598 4.33891 18.7969 18.8695L39.9992 20.2758L61.2016 18.8695Z" fill="#DC4955"/>
<path d="M18.7945 18.8696C18.7062 19.5604 18.6373 20.2536 18.5881 20.9482C18.5541 21.4228 18.9323 21.8265 19.4081 21.8265H33.3954L39.9971 20.4203L46.5999 21.8265H60.5862C61.062 21.8265 61.4401 21.4228 61.4062 20.9482C61.3551 20.2332 61.2859 19.5407 61.1998 18.8696H18.7945Z" fill="#D82F3C"/>
<path d="M46.5991 17.2834L39.9962 18.6897L33.3945 17.2834V16.8697C33.3945 13.2233 36.3505 10.2673 39.9969 10.2673C43.6433 10.2673 46.5992 13.2233 46.5992 16.8697V17.2834H46.5991Z" fill="#26457D"/>
<path d="M46.5992 18.8695L39.9969 20.2757L33.3945 18.8695V17.2832H46.5992V18.8695Z" fill="#F6E080"/>
<path d="M33.3945 18.8696H46.5991V21.8265H33.3945V18.8696Z" fill="#ECCD61"/>
</svg>
