<svg width="80" height="80" viewBox="0 0 80 80" fill="none" xmlns="http://www.w3.org/2000/svg">
<path d="M32.7328 50.0585L20.3429 48.0155C19.5827 47.8901 18.8956 47.4883 18.4136 46.8872C17.9316 46.2861 17.6886 45.5281 17.7314 44.7588L18.9658 22.5283C19.2656 17.1325 21.6203 12.0564 25.5462 8.34269C29.4721 4.62895 34.671 2.55955 40.0751 2.55957C45.4792 2.55955 50.6782 4.62895 54.6041 8.34269C58.5299 12.0564 60.8846 17.1325 61.1845 22.5283L62.4189 44.7588C62.4617 45.5279 62.2189 46.2857 61.7371 46.8868C61.2554 47.4879 60.5686 47.8898 59.8086 48.0155L47.4203 50.0585" fill="#A0815C"/>
<path d="M46.6984 62.3715C46.65 62.3949 46.6016 62.4184 46.5516 62.4402L43.6844 77.4996H36.3172L33.4328 62.359L33.4141 62.2637C33.4766 62.2965 33.5422 62.3277 33.6063 62.359C35.4375 63.2527 37.6703 63.7043 40.0781 63.6527C42.4125 63.6027 44.5828 63.1684 46.3812 62.3715C46.4484 62.3402 46.5156 62.3105 46.5828 62.2793L46.5656 62.3715H46.6984Z" fill="#00D7DF"/>
<path d="M70 69.3532V77.5H43.6828L46.55 62.4407C46.6 62.4188 46.6484 62.3954 46.6969 62.3719H46.5641L46.5812 62.2797C46.5141 62.311 46.4469 62.3407 46.3797 62.3719C44.5812 63.1688 42.4109 63.6032 40.0766 63.6532C37.6687 63.7047 35.4359 63.2532 33.6047 62.3594C33.5406 62.3282 33.475 62.2969 33.4125 62.2641L33.4313 62.3594L36.3156 77.5H10V69.3532C10 66.6533 10.8742 64.026 12.4917 61.8643C14.1093 59.7026 16.3832 58.1227 18.9734 57.361L24.3688 55.7735H24.4922L32.1703 55.7407L47.8391 55.6751L55.1906 55.6438L55.4062 55.7079L61.0266 57.361C63.6168 58.1227 65.8907 59.7026 67.5083 61.8643C69.1258 64.026 70 66.6533 70 69.3532Z" fill="#E0E0E2"/>
<path d="M36.3281 77.5591H31.3281L31.3031 77.4997L25.0781 62.5591L28.8281 61.3091L23.6719 56.3091L24.4937 55.7731L31.3281 51.3091L32.1719 55.7403L33.4141 62.2638L33.4328 62.3591L36.3172 77.4997L36.3281 77.5591ZM51.1719 61.3075L54.9219 62.5575L48.6984 77.4997L48.6734 77.5591H43.6734L43.6844 77.4997L46.5516 62.4403C46.6016 62.4185 46.65 62.395 46.6984 62.3716H46.5656L46.5828 62.2794L47.8406 55.6747L48.6719 51.3091L48.8281 51.4106L55.4078 55.7075L56.3281 56.3075L51.1719 61.3075Z" fill="#C6C5CA"/>
<path d="M46.6977 62.3718C46.6492 62.3953 46.6008 62.4187 46.5508 62.4406L46.5648 62.3718H46.6977Z" fill="#FFDAAA"/>
<path d="M46.6953 62.3719C46.6469 62.3953 46.5984 62.4187 46.5484 62.4406C44.5163 63.3636 42.3068 63.8308 40.075 63.8094C37.5891 63.8094 35.2922 63.2719 33.4297 62.3594H33.6031C35.4344 63.2531 37.6672 63.7047 40.075 63.6531C42.4094 63.6031 44.5797 63.1687 46.3781 62.3719H46.6953Z" fill="#FFDAAA"/>
<path d="M55.0781 73.8086H65.0781V77.5586H55.0781V73.8086Z" fill="#898890"/>
<path d="M48.8281 47.5591V51.4106L48.6719 51.3091L47.8406 55.6747L46.5828 62.2794C46.5156 62.3106 46.4484 62.3403 46.3812 62.3716C44.5828 63.1685 42.4125 63.6028 40.0781 63.6528C37.6703 63.7044 35.4375 63.2528 33.6063 62.3591C33.5422 62.3278 33.4766 62.2966 33.4141 62.2638L32.1719 55.7403L31.3281 51.3091V47.5591H48.8281Z" fill="#FFDAAA"/>
<path d="M25.0781 27.5586C25.0781 27.5586 41.3281 28.8086 46.3281 17.5586C46.3281 17.5586 52.5781 21.3086 55.0781 28.8086V35.0586C55.0781 39.0368 53.4978 42.8522 50.6847 45.6652C47.8717 48.4782 44.0564 50.0586 40.0781 50.0586C36.0999 50.0586 32.2846 48.4782 29.4715 45.6652C26.6585 42.8522 25.0781 39.0368 25.0781 35.0586V27.5586Z" fill="#FFDAAA"/>
</svg>
