<svg width="80" height="80" viewBox="0 0 80 80" fill="none" xmlns="http://www.w3.org/2000/svg">
<mask id="mask0_7087_61212" style="mask-type:luminance" maskUnits="userSpaceOnUse" x="0" y="0" width="80" height="80">
<path d="M0 -7.62939e-06H79.9998V79.9998H0V-7.62939e-06Z" fill="white"/>
</mask>
<g mask="url(#mask0_7087_61212)">
<path d="M70.0683 78.4373V65.3942C70.0683 59.6856 66.2008 54.7023 60.6708 53.2853L50.0191 50.5563C49.347 50.3841 48.7514 49.9931 48.326 49.445C47.9006 48.8969 47.6697 48.2229 47.6697 47.5291V40.4905H32.3321V47.5291C32.3321 48.2229 32.1012 48.8969 31.6759 49.445C31.2505 49.9931 30.6548 50.3841 29.9828 50.5563L19.3311 53.2853C13.8011 54.7023 9.93359 59.6856 9.93359 65.3942V78.4373C9.93359 79.3002 10.6331 79.9998 11.4961 79.9998H31.9523L40.0008 77.656L48.1622 79.9998H68.5058C69.3687 79.9998 70.0683 79.3002 70.0683 78.4373Z" fill="#3F6E92"/>
<path d="M60.6707 53.2853L50.019 50.5562C49.3469 50.3841 48.7513 49.9931 48.3259 49.445C47.9005 48.8969 47.6696 48.2229 47.6696 47.5291V40.4903H32.332V42.8341H42.9822V49.8728C42.9822 50.5666 43.213 51.2407 43.6384 51.7887C44.0638 52.3368 44.6594 52.7278 45.3315 52.9L55.9832 55.629C61.5132 57.0459 65.3807 62.0293 65.3807 67.7379V79.9998H68.5057C69.3686 79.9998 70.0682 79.3002 70.0682 78.4373V65.3942C70.0682 59.6856 66.2007 54.7022 60.6707 53.2853Z" fill="#355F7F"/>
<path d="M53.1816 51.3659L50.0215 50.5562C49.3494 50.3841 48.7537 49.9931 48.3284 49.445C47.903 48.8969 47.6721 48.2229 47.6721 47.5291V40.4905H32.3345V47.5291C32.3345 48.2229 32.1036 48.8969 31.6782 49.445C31.2529 49.9931 30.6572 50.3841 29.9851 50.5562L26.8253 51.3659L23.0703 57.6437L28.2847 79.9998H51.7221L53.8933 58.0658L53.1816 51.3659Z" fill="#EAF6FF"/>
<path d="M42.9822 49.8727C42.9822 50.5665 43.213 51.2406 43.6384 51.7887C44.0638 52.3368 44.6594 52.7277 45.3315 52.8999L53.5662 55.0098L53.1792 51.3659L50.019 50.5562C49.3467 50.3844 48.7509 49.9934 48.3259 49.4449C47.9002 48.897 47.6693 48.2229 47.6696 47.529V40.4904H32.332V42.8342H42.9822V49.8727Z" fill="#D8ECFE"/>
<path d="M50.0207 50.5561C49.3486 50.3839 48.753 49.993 48.3276 49.4449C47.9022 48.8968 47.6714 48.2228 47.6714 47.529V40.4904H32.3337V47.529C32.3337 48.2228 32.1029 48.8968 31.6775 49.4449C31.2521 49.993 30.6565 50.3839 29.9844 50.5561L40.0025 59.7231L50.0207 50.5561Z" fill="#FFCEBF"/>
<path d="M42.9822 49.8726C42.9822 50.5664 43.213 51.2405 43.6384 51.7886C44.0638 52.3367 44.6594 52.7276 45.3315 52.8998L46.9926 53.3254L50.019 50.5561C49.3467 50.3843 48.7509 49.9933 48.3259 49.4448C47.9002 48.8969 47.6693 48.2227 47.6696 47.5289V40.4903H32.332V42.8341H42.9822V49.8726Z" fill="#FFB09E"/>
<path d="M53.7408 79.9998L60.1051 67.7581C60.2181 67.5408 60.2549 67.2919 60.2096 67.0512C60.1642 66.8105 60.0394 66.592 59.8551 66.4307L57.2998 64.1931C57.1248 64.0399 57.0033 63.8348 56.9527 63.6078C56.9022 63.3808 56.9254 63.1436 57.0189 62.9306L58.645 59.2261C58.7247 59.0444 58.7535 58.8445 58.7283 58.6477C58.7032 58.451 58.6249 58.2647 58.502 58.109L53.1809 51.3659C53.1159 56.3966 52.6272 61.4128 51.7201 66.3614C50.8559 71.076 49.3692 76.4249 48.1641 79.9998H53.7408Z" fill="#355F7F"/>
<path d="M53.1777 51.366C53.1622 52.5384 53.1238 53.7104 53.0625 54.8813L55.9817 55.6292C56.2265 55.6928 56.4692 55.7638 56.7097 55.842L53.1777 51.366Z" fill="#305972"/>
<path d="M26.265 79.9998L19.9007 67.7581C19.7877 67.5408 19.7509 67.2919 19.7962 67.0512C19.8415 66.8106 19.9663 66.5921 20.1505 66.4307L22.706 64.1931C22.8809 64.0399 23.0025 63.8348 23.053 63.6078C23.1036 63.3808 23.0804 63.1436 22.9869 62.9306L21.3608 59.2261C21.2811 59.0444 21.2522 58.8445 21.2774 58.6477C21.3026 58.451 21.3809 58.2647 21.5038 58.109L26.8249 51.3659C26.5864 56.5352 26.9634 61.7144 27.9478 66.7946C28.8658 71.5282 30.6372 76.7427 31.9541 79.9998H26.265Z" fill="#355F7F"/>
<path d="M36.2578 79.9998L38.7506 60.3904H41.2506L43.7433 79.9998H36.2578Z" fill="#F58A97"/>
<path d="M45.6367 59.6874L41.1069 64.2172C40.4967 64.8273 39.5072 64.8273 38.897 64.2172L34.3672 59.6874L40.0019 57.3796L45.6367 59.6874Z" fill="#C4E2FF"/>
<path d="M53.1782 51.366L50.0181 50.5563C49.2526 50.3602 48.59 49.881 48.164 49.2155L40 57.3797L43.978 61.3577C44.4458 61.8253 45.2184 61.7741 45.6201 61.2487L53.1782 51.366Z" fill="#D8ECFE"/>
<path d="M49.6659 50.4397C49.3173 50.2919 48.9233 50.0995 48.5153 49.6634C48.3857 49.525 48.2689 49.3751 48.1664 49.2155L44.7148 52.6669C44.9121 52.7663 45.1194 52.8444 45.3331 52.9L50.9137 54.3298L53.1806 51.3658L50.0206 50.5563C49.898 50.5247 49.7812 50.4886 49.6659 50.4397Z" fill="#C4E2FF"/>
<path d="M26.8203 51.366L29.9805 50.5563C30.7459 50.3602 31.4085 49.881 31.8345 49.2155L39.9986 57.3797L36.0206 61.3577C35.5528 61.8253 34.7801 61.7741 34.3784 61.2487L26.8203 51.366Z" fill="#D8ECFE"/>
<path d="M57.9843 8.98441V22.2656H22.0156V8.98441C22.0156 4.67036 25.5125 1.17194 29.8281 1.17194H50.1718C52.0202 1.17194 53.7171 1.81412 55.0546 2.88599V2.88755C56.8405 4.31724 57.9843 6.51723 57.9843 8.98441Z" fill="#E19974"/>
<path d="M50.1719 1.17194H45.4844C49.799 1.17194 53.2969 4.66974 53.2969 8.98441V22.2656H57.9843V8.98441C57.9843 4.66974 54.4865 1.17194 50.1719 1.17194Z" fill="#554E56"/>
<path d="M57.9843 8.98441V22.2656H53.2969V8.98441C53.2969 7.87817 53.0656 6.82504 52.65 5.87036C51.4484 3.10474 48.6922 1.17194 45.4844 1.17194H50.1719C52.0187 1.17194 53.7156 1.81256 55.0515 2.88443L55.0547 2.88755C56.8406 4.31724 57.9843 6.51723 57.9843 8.98441Z" fill="#DC8758"/>
<path d="M55.0546 2.88599V2.88756C53.4482 5.07571 51.6364 7.10525 49.6437 8.94848C48.0917 10.3836 46.435 11.7013 44.6874 12.8907L44.2968 16.9078L32.1093 22.2656H22.0156V8.98441C22.0156 4.67036 25.5125 1.17194 29.8281 1.17194H50.1718C52.0202 1.17194 53.7171 1.81412 55.0546 2.88599Z" fill="#DC8758"/>
<path d="M55.0547 2.88756C54.3672 3.82505 53.5687 4.82974 52.65 5.87036C51.4484 3.10474 48.6922 1.17194 45.4844 1.17194H50.1719C52.0187 1.17194 53.7156 1.81256 55.0515 2.88443L55.0547 2.88756Z" fill="#D77F4A"/>
<path d="M59.2166 26.8801H57.9844V19.9205H59.2166C61.1384 19.9205 62.6964 21.4784 62.6964 23.4003C62.6964 25.3222 61.1384 26.8801 59.2166 26.8801Z" fill="#FFCEBF"/>
<path d="M20.7845 26.8801H22.0167V19.9205H20.7845C18.8627 19.9205 17.3047 21.4784 17.3047 23.4003C17.3047 25.3222 18.8627 26.8801 20.7845 26.8801Z" fill="#FFB09E"/>
<path d="M39.937 47.4984C29.9972 47.4641 22.0156 39.2583 22.0156 29.3183V19.9218C25.6016 19.9324 30.9892 19.4787 36.9465 17.0793C39.6764 15.9788 42.2734 14.5736 44.6881 12.8906C45.5182 14.0902 47.2445 16.2432 50.1859 17.8757C53.4496 19.6868 56.5036 19.9104 57.9854 19.9218V29.5136C57.9854 39.4677 49.899 47.5328 39.937 47.4984Z" fill="#FFCEBF"/>
<path d="M57.9843 19.9217V29.5139C57.9843 39.467 49.8984 47.5326 39.9359 47.4982C39.8351 47.4874 39.1134 47.5274 37.6609 47.3451C28.8062 46.1794 22.0156 38.4857 22.0156 29.3185V19.9217C25.6016 19.9326 30.989 19.478 36.9453 17.0795C39.6755 15.9792 42.2727 14.574 44.6874 12.8905C45.5171 14.0905 47.2437 16.2436 50.1859 17.8748C51.2624 18.4733 52.3155 18.8983 53.2968 19.1983C55.2921 19.8123 56.9921 19.9139 57.9843 19.9217Z" fill="#FFCEBF"/>
<path d="M57.9852 29.514V19.9219C56.9931 19.914 55.2931 19.8125 53.2978 19.1984V29.514C53.3271 30.7682 53.3337 36.7195 48.7885 41.4243C44.6668 45.691 38.3606 47.3193 32.332 45.7605C35.0509 47.0105 37.4961 47.4415 39.544 47.493C49.6362 47.7465 57.9913 39.611 57.9852 29.514Z" fill="#FFB09E"/>
</g>
</svg>
